<svg width="340" height="140" viewBox="0 0 340 140" fill="none" xmlns="http://www.w3.org/2000/svg">
<g clip-path="url(#clip0_29_115)">
<rect width="340" height="140" fill="#FFC0BF"/>
<circle cx="244" cy="166" r="125" fill="#FFACAA"/>
<circle cx="404" cy="78" r="200" fill="#FF9B99"/>
<ellipse cx="19.6817" cy="50.9279" rx="158" ry="150" transform="rotate(41.1794 19.6817 50.9279)" fill="#FF9B99"/>
<circle cx="5" cy="78" r="150" fill="#FA6F6C"/>
<circle cx="340" cy="78" r="125" fill="#FF718B"/>
<circle cx="340" cy="78" r="125" fill="#FF8785"/>
<path d="M28.4775 23.8438V41H26.3096V26.5508L21.9385 28.1445V26.1875L28.1377 23.8438H28.4775ZM38.7947 32.8789L37.0604 32.4336L37.9158 23.9375H46.6697V25.9414H39.7557L39.24 30.582C39.5525 30.4023 39.9471 30.2344 40.4236 30.0781C40.908 29.9219 41.4627 29.8438 42.0877 29.8438C42.8768 29.8438 43.5838 29.9805 44.2088 30.2539C44.8338 30.5195 45.365 30.9023 45.8025 31.4023C46.2479 31.9023 46.5877 32.5039 46.8221 33.207C47.0564 33.9102 47.1736 34.6953 47.1736 35.5625C47.1736 36.3828 47.0604 37.1367 46.8338 37.8242C46.615 38.5117 46.283 39.1133 45.8377 39.6289C45.3924 40.1367 44.8299 40.5312 44.1502 40.8125C43.4783 41.0938 42.6854 41.2344 41.7713 41.2344C41.0838 41.2344 40.4314 41.1406 39.8143 40.9531C39.2049 40.7578 38.658 40.4648 38.1736 40.0742C37.6971 39.6758 37.3064 39.1836 37.0018 38.5977C36.7049 38.0039 36.5174 37.3086 36.4393 36.5117H38.5018C38.5955 37.1523 38.783 37.6914 39.0643 38.1289C39.3455 38.5664 39.7127 38.8984 40.1658 39.125C40.6268 39.3438 41.1619 39.4531 41.7713 39.4531C42.2869 39.4531 42.7439 39.3633 43.1424 39.1836C43.5408 39.0039 43.8768 38.7461 44.1502 38.4102C44.4236 38.0742 44.6307 37.668 44.7713 37.1914C44.9197 36.7148 44.9939 36.1797 44.9939 35.5859C44.9939 35.0469 44.9197 34.5469 44.7713 34.0859C44.6229 33.625 44.4002 33.2227 44.1033 32.8789C43.8143 32.5352 43.4588 32.2695 43.0369 32.082C42.615 31.8867 42.1307 31.7891 41.5838 31.7891C40.8572 31.7891 40.3064 31.8867 39.9314 32.082C39.5643 32.2773 39.1854 32.543 38.7947 32.8789ZM63.3432 37.2646V28.2031H65.0307V37.2646C65.0307 38.1084 64.8578 38.8203 64.5121 39.4004C64.1664 39.9805 63.6889 40.4229 63.0795 40.7275C62.476 41.0264 61.7816 41.1758 60.9965 41.1758C60.2113 41.1758 59.5141 41.041 58.9047 40.7715C58.2953 40.502 57.8178 40.0918 57.4721 39.541C57.1264 38.9902 56.9535 38.2959 56.9535 37.458H58.6498C58.6498 37.9971 58.7494 38.4395 58.9486 38.7852C59.1479 39.1309 59.4232 39.3857 59.7748 39.5498C60.1322 39.7139 60.5395 39.7959 60.9965 39.7959C61.4418 39.7959 61.8402 39.7021 62.1918 39.5146C62.5492 39.3213 62.8305 39.0371 63.0355 38.6621C63.2406 38.2812 63.3432 37.8154 63.3432 37.2646ZM74.166 39.374V34.4785C74.166 34.1035 74.0898 33.7783 73.9375 33.5029C73.791 33.2217 73.5684 33.0049 73.2695 32.8525C72.9707 32.7002 72.6016 32.624 72.1621 32.624C71.752 32.624 71.3916 32.6943 71.0811 32.835C70.7764 32.9756 70.5361 33.1602 70.3604 33.3887C70.1904 33.6172 70.1055 33.8633 70.1055 34.127H68.4795C68.4795 33.7871 68.5674 33.4502 68.7432 33.1162C68.9189 32.7822 69.1709 32.4805 69.499 32.2109C69.833 31.9355 70.2314 31.7188 70.6943 31.5605C71.1631 31.3965 71.6846 31.3145 72.2588 31.3145C72.9502 31.3145 73.5596 31.4316 74.0869 31.666C74.6201 31.9004 75.0361 32.2549 75.335 32.7295C75.6396 33.1982 75.792 33.7871 75.792 34.4961V38.9258C75.792 39.2422 75.8184 39.5791 75.8711 39.9365C75.9297 40.2939 76.0146 40.6016 76.126 40.8594V41H74.4297C74.3477 40.8125 74.2832 40.5635 74.2363 40.2529C74.1895 39.9365 74.166 39.6436 74.166 39.374ZM74.4473 35.2344L74.4648 36.377H72.8213C72.3584 36.377 71.9453 36.415 71.582 36.4912C71.2188 36.5615 70.9141 36.6699 70.668 36.8164C70.4219 36.9629 70.2344 37.1475 70.1055 37.3701C69.9766 37.5869 69.9121 37.8418 69.9121 38.1348C69.9121 38.4336 69.9795 38.7061 70.1143 38.9521C70.249 39.1982 70.4512 39.3945 70.7207 39.541C70.9961 39.6816 71.333 39.752 71.7314 39.752C72.2295 39.752 72.6689 39.6465 73.0498 39.4355C73.4307 39.2246 73.7324 38.9668 73.9551 38.6621C74.1836 38.3574 74.3066 38.0615 74.3242 37.7744L75.0186 38.5566C74.9775 38.8027 74.8662 39.0752 74.6846 39.374C74.5029 39.6729 74.2598 39.96 73.9551 40.2354C73.6562 40.5049 73.2988 40.7305 72.8828 40.9121C72.4727 41.0879 72.0098 41.1758 71.4941 41.1758C70.8496 41.1758 70.2842 41.0498 69.7979 40.7979C69.3174 40.5459 68.9424 40.209 68.6729 39.7871C68.4092 39.3594 68.2773 38.8818 68.2773 38.3545C68.2773 37.8447 68.377 37.3965 68.5762 37.0098C68.7754 36.6172 69.0625 36.292 69.4375 36.0342C69.8125 35.7705 70.2637 35.5713 70.791 35.4365C71.3184 35.3018 71.9072 35.2344 72.5576 35.2344H74.4473ZM80.8756 33.5205V41H79.2496V31.4902H80.7877L80.8756 33.5205ZM80.4889 35.8848L79.8121 35.8584C79.818 35.208 79.9146 34.6074 80.1021 34.0566C80.2896 33.5 80.5533 33.0166 80.8932 32.6064C81.233 32.1963 81.6373 31.8799 82.1061 31.6572C82.5807 31.4287 83.1051 31.3145 83.6793 31.3145C84.148 31.3145 84.5699 31.3789 84.9449 31.5078C85.3199 31.6309 85.6393 31.8301 85.9029 32.1055C86.1725 32.3809 86.3775 32.7383 86.5182 33.1777C86.6588 33.6113 86.7291 34.1416 86.7291 34.7686V41H85.0943V34.751C85.0943 34.2529 85.0211 33.8545 84.8746 33.5557C84.7281 33.251 84.5143 33.0312 84.233 32.8965C83.9518 32.7559 83.6061 32.6855 83.1959 32.6855C82.7916 32.6855 82.4225 32.7705 82.0885 32.9404C81.7604 33.1104 81.4762 33.3447 81.2359 33.6436C81.0016 33.9424 80.817 34.2852 80.6822 34.6719C80.5533 35.0527 80.4889 35.457 80.4889 35.8848ZM95.9172 38.8027V31.4902H97.552V41H95.9963L95.9172 38.8027ZM96.2248 36.7988L96.9016 36.7812C96.9016 37.4141 96.8342 38 96.6994 38.5391C96.5705 39.0723 96.3596 39.5352 96.0666 39.9277C95.7736 40.3203 95.3898 40.6279 94.9152 40.8506C94.4406 41.0674 93.8635 41.1758 93.1838 41.1758C92.7209 41.1758 92.2961 41.1084 91.9094 40.9736C91.5285 40.8389 91.2004 40.6309 90.925 40.3496C90.6496 40.0684 90.4357 39.7021 90.2834 39.251C90.1369 38.7998 90.0637 38.2578 90.0637 37.625V31.4902H91.6897V37.6426C91.6897 38.0703 91.7365 38.4248 91.8303 38.7061C91.9299 38.9814 92.0617 39.2012 92.2258 39.3652C92.3957 39.5234 92.5832 39.6348 92.7883 39.6992C92.9992 39.7637 93.216 39.7959 93.4387 39.7959C94.1301 39.7959 94.6779 39.6641 95.0822 39.4004C95.4865 39.1309 95.7766 38.7705 95.9523 38.3193C96.134 37.8623 96.2248 37.3555 96.2248 36.7988ZM106.538 39.374V34.4785C106.538 34.1035 106.462 33.7783 106.309 33.5029C106.163 33.2217 105.94 33.0049 105.641 32.8525C105.343 32.7002 104.973 32.624 104.534 32.624C104.124 32.624 103.763 32.6943 103.453 32.835C103.148 32.9756 102.908 33.1602 102.732 33.3887C102.562 33.6172 102.477 33.8633 102.477 34.127H100.851C100.851 33.7871 100.939 33.4502 101.115 33.1162C101.291 32.7822 101.543 32.4805 101.871 32.2109C102.205 31.9355 102.603 31.7188 103.066 31.5605C103.535 31.3965 104.056 31.3145 104.631 31.3145C105.322 31.3145 105.931 31.4316 106.459 31.666C106.992 31.9004 107.408 32.2549 107.707 32.7295C108.012 33.1982 108.164 33.7871 108.164 34.4961V38.9258C108.164 39.2422 108.19 39.5791 108.243 39.9365C108.302 40.2939 108.387 40.6016 108.498 40.8594V41H106.802C106.72 40.8125 106.655 40.5635 106.608 40.2529C106.561 39.9365 106.538 39.6436 106.538 39.374ZM106.819 35.2344L106.837 36.377H105.193C104.73 36.377 104.317 36.415 103.954 36.4912C103.591 36.5615 103.286 36.6699 103.04 36.8164C102.794 36.9629 102.606 37.1475 102.477 37.3701C102.348 37.5869 102.284 37.8418 102.284 38.1348C102.284 38.4336 102.351 38.7061 102.486 38.9521C102.621 39.1982 102.823 39.3945 103.093 39.541C103.368 39.6816 103.705 39.752 104.103 39.752C104.601 39.752 105.041 39.6465 105.422 39.4355C105.803 39.2246 106.104 38.9668 106.327 38.6621C106.555 38.3574 106.679 38.0615 106.696 37.7744L107.39 38.5566C107.349 38.8027 107.238 39.0752 107.056 39.374C106.875 39.6729 106.632 39.96 106.327 40.2354C106.028 40.5049 105.671 40.7305 105.255 40.9121C104.845 41.0879 104.382 41.1758 103.866 41.1758C103.221 41.1758 102.656 41.0498 102.17 40.7979C101.689 40.5459 101.314 40.209 101.045 39.7871C100.781 39.3594 100.649 38.8818 100.649 38.3545C100.649 37.8447 100.749 37.3965 100.948 37.0098C101.147 36.6172 101.434 36.292 101.809 36.0342C102.184 35.7705 102.636 35.5713 103.163 35.4365C103.69 35.3018 104.279 35.2344 104.929 35.2344H106.819ZM113.247 32.9844V41H111.621V31.4902H113.204L113.247 32.9844ZM116.218 31.4375L116.209 32.9492C116.075 32.9199 115.946 32.9023 115.823 32.8965C115.705 32.8848 115.571 32.8789 115.418 32.8789C115.043 32.8789 114.712 32.9375 114.425 33.0547C114.138 33.1719 113.895 33.3359 113.696 33.5469C113.496 33.7578 113.338 34.0098 113.221 34.3027C113.11 34.5898 113.037 34.9062 113.001 35.252L112.544 35.5156C112.544 34.9414 112.6 34.4023 112.711 33.8984C112.829 33.3945 113.007 32.9492 113.247 32.5625C113.488 32.1699 113.792 31.8652 114.162 31.6484C114.537 31.4258 114.982 31.3145 115.497 31.3145C115.615 31.3145 115.749 31.3291 115.902 31.3584C116.054 31.3818 116.16 31.4082 116.218 31.4375ZM121.451 40.0156L124.097 31.4902H125.837L122.022 42.4678C121.935 42.7021 121.817 42.9541 121.671 43.2236C121.53 43.499 121.349 43.7598 121.126 44.0059C120.903 44.252 120.634 44.4512 120.317 44.6035C120.007 44.7617 119.635 44.8408 119.201 44.8408C119.072 44.8408 118.908 44.8232 118.709 44.7881C118.51 44.7529 118.369 44.7236 118.287 44.7002L118.278 43.3818C118.325 43.3877 118.398 43.3936 118.498 43.3994C118.604 43.4111 118.677 43.417 118.718 43.417C119.087 43.417 119.4 43.3672 119.658 43.2676C119.916 43.1738 120.133 43.0127 120.309 42.7842C120.49 42.5615 120.646 42.2539 120.774 41.8613L121.451 40.0156ZM119.509 31.4902L121.979 38.873L122.4 40.5869L121.231 41.1846L117.733 31.4902H119.509Z" fill="#2B4450"/>
<rect x="32" y="54" width="82" height="24" rx="9" fill="#FF718B" stroke="#FEAFBD" stroke-width="2"/>
<path d="M65.5047 64.4062L65.1453 65.6406H57.8953L58.2547 64.4062H65.5047ZM62.2547 73L58.1219 68.1719L58.1141 67.2031H60.0203C60.5724 67.2031 61.0281 67.112 61.3875 66.9297C61.7521 66.7422 62.0255 66.4896 62.2078 66.1719C62.3901 65.8542 62.4812 65.4974 62.4812 65.1016C62.4812 64.6589 62.3953 64.2708 62.2234 63.9375C62.0516 63.599 61.7807 63.3359 61.4109 63.1484C61.0464 62.9557 60.5672 62.8594 59.9734 62.8594H57.9109L58.2781 61.625H59.9734C60.8797 61.625 61.6271 61.763 62.2156 62.0391C62.8094 62.3099 63.2521 62.7057 63.5437 63.2266C63.8354 63.7474 63.9812 64.3776 63.9812 65.1172C63.9812 65.7526 63.8589 66.3229 63.6141 66.8281C63.3745 67.3281 62.976 67.7214 62.4187 68.0078C61.8667 68.2943 61.1219 68.4375 60.1844 68.4375L64.0281 72.9062V73H62.2547ZM65.5047 61.625L65.1453 62.8594H59.3016L59.6609 61.625H65.5047ZM75.2734 69.1719V70.3594H67.0547V69.5078L72.1484 61.625H73.3281L72.0625 63.9062L68.6953 69.1719H75.2734ZM73.6875 61.625V73H72.2422V61.625H73.6875ZM84.5266 66.4062V68.1406C84.5266 69.0729 84.4432 69.8594 84.2766 70.5C84.1099 71.1406 83.8703 71.6562 83.5578 72.0469C83.2453 72.4375 82.8677 72.7214 82.425 72.8984C81.9875 73.0703 81.4927 73.1562 80.9406 73.1562C80.5031 73.1562 80.0995 73.1016 79.7297 72.9922C79.3599 72.8828 79.0266 72.7083 78.7297 72.4688C78.438 72.224 78.188 71.9062 77.9797 71.5156C77.7714 71.125 77.6125 70.651 77.5031 70.0938C77.3937 69.5365 77.3391 68.8854 77.3391 68.1406V66.4062C77.3391 65.474 77.4224 64.6927 77.5891 64.0625C77.7609 63.4323 78.0031 62.9271 78.3156 62.5469C78.6281 62.1615 79.0031 61.8854 79.4406 61.7188C79.8833 61.5521 80.3781 61.4688 80.925 61.4688C81.3677 61.4688 81.774 61.5234 82.1437 61.6328C82.5187 61.737 82.8521 61.9062 83.1437 62.1406C83.4354 62.3698 83.6828 62.6771 83.8859 63.0625C84.0943 63.4427 84.2531 63.9089 84.3625 64.4609C84.4719 65.013 84.5266 65.6615 84.5266 66.4062ZM83.0734 68.375V66.1641C83.0734 65.6536 83.0422 65.2057 82.9797 64.8203C82.9224 64.4297 82.8365 64.0964 82.7219 63.8203C82.6073 63.5443 82.4615 63.3203 82.2844 63.1484C82.1125 62.9766 81.912 62.8516 81.6828 62.7734C81.4589 62.6901 81.2062 62.6484 80.925 62.6484C80.5812 62.6484 80.2766 62.7135 80.0109 62.8438C79.7453 62.9688 79.5214 63.1693 79.3391 63.4453C79.162 63.7214 79.0266 64.0833 78.9328 64.5312C78.8391 64.9792 78.7922 65.5234 78.7922 66.1641V68.375C78.7922 68.8854 78.8208 69.3359 78.8781 69.7266C78.9406 70.1172 79.0318 70.4557 79.1516 70.7422C79.2714 71.0234 79.4172 71.2552 79.5891 71.4375C79.7609 71.6198 79.9589 71.7552 80.1828 71.8438C80.412 71.9271 80.6646 71.9688 80.9406 71.9688C81.2948 71.9688 81.6047 71.901 81.8703 71.7656C82.1359 71.6302 82.3573 71.4193 82.5344 71.1328C82.7167 70.8411 82.8521 70.4688 82.9406 70.0156C83.0292 69.5573 83.0734 69.0104 83.0734 68.375Z" fill="#EBBFC7"/>
</g>
<defs>
<clipPath id="clip0_29_115">
<rect width="340" height="140" fill="white"/>
</clipPath>
</defs>
</svg>
