<svg width="128" height="128" viewBox="0 0 128 128" fill="none" xmlns="http://www.w3.org/2000/svg">
<g clip-path="url(#clip0_85_33)">
<mask id="path-1-outside-1_85_33" maskUnits="userSpaceOnUse" x="20" y="16" width="80" height="95" fill="black">
<rect fill="white" x="20" y="16" width="80" height="95"/>
<path d="M70.9375 19.5625C72.4375 19.5625 74.1042 19.6875 75.9375 19.9375C77.8125 20.1875 79.6458 20.6042 81.4375 21.1875C83.2708 21.7708 84.9583 22.5417 86.5 23.5C88.0417 24.4167 89.2292 25.5833 90.0625 27C91.1042 27.75 92.0417 28.8542 92.875 30.3125C93.625 31.8958 94 33.3958 94 34.8125C94 36.3958 93.7083 37.8542 93.125 39.1875C92.5833 40.5208 91.875 41.7292 91 42.8125C90.125 43.8958 89.1667 44.8542 88.125 45.6875C87.125 46.5208 86.1458 47.2292 85.1875 47.8125C84.2292 48.3542 83.3958 48.7708 82.6875 49.0625C81.9792 49.3542 81.5208 49.5 81.3125 49.5C81.1042 49.5 80.75 49.3958 80.25 49.1875C79.7917 48.9792 79.3333 48.7292 78.875 48.4375C78.3333 48.1458 77.75 47.7917 77.125 47.375C77.125 47.3333 77.5208 47.0833 78.3125 46.625C79.1042 46.1667 79.9792 45.4583 80.9375 44.5C81.9375 43.5417 82.8333 42.2917 83.625 40.75C84.4167 39.1667 84.8125 37.2292 84.8125 34.9375C84.4375 34.1875 83.9167 33.4792 83.25 32.8125C82.5833 32.1042 81.7292 31.5 80.6875 31C79.6458 30.4583 78.375 30.0208 76.875 29.6875C75.4167 29.3542 73.6667 29.1875 71.625 29.1875C70.9167 29.1875 69.8333 29.2917 68.375 29.5C66.9167 29.7083 65.2292 30.0833 63.3125 30.625C61.3958 31.1667 59.3125 31.9167 57.0625 32.875C54.8542 33.7917 52.625 35.0208 50.375 36.5625C48.1667 38.0625 46.0208 39.8958 43.9375 42.0625C41.8958 44.1875 40.0833 46.7083 38.5 49.625C36.9167 52.5 35.6458 55.8125 34.6875 59.5625C33.7708 63.3125 33.3125 67.5625 33.3125 72.3125C33.3125 74.8958 33.5208 77.25 33.9375 79.375C34.3542 81.4583 34.8958 83.3542 35.5625 85.0625C36.2708 86.7292 37.0833 88.2292 38 89.5625C38.9167 90.8542 39.875 92.0208 40.875 93.0625C41.5 93.3958 42.2083 93.8333 43 94.375C43.7917 94.875 44.8542 95.375 46.1875 95.875C47.5625 96.3333 49.3125 96.75 51.4375 97.125C53.5625 97.4583 56.2708 97.625 59.5625 97.625C62.3958 97.625 65.0833 97.2917 67.625 96.625C70.2083 95.9583 72.6042 95.1042 74.8125 94.0625C77.0625 93.0208 79.125 91.875 81 90.625C82.875 89.3333 84.5208 88.0833 85.9375 86.875C87.3958 85.625 88.6042 84.5 89.5625 83.5C90.5208 82.4583 91.1875 81.6667 91.5625 81.125C92.3542 80.0417 92.9167 79.3542 93.25 79.0625C93.5833 78.7292 93.875 78.5625 94.125 78.5625C94.3333 78.5625 94.5208 78.5833 94.6875 78.625C94.8958 78.6667 95.1042 78.6875 95.3125 78.6875C95.6875 78.6875 95.9167 78.5 96 78.125C96.0833 77.75 96.1875 77.5625 96.3125 77.5625C96.3958 77.5625 96.4583 77.7292 96.5 78.0625C96.5417 78.3958 96.5625 78.7917 96.5625 79.25C96.5625 79.5 96.5417 79.75 96.5 80C96.4583 80.2083 96.4375 80.4167 96.4375 80.625C96.3958 80.875 96.2083 81.7292 95.875 83.1875C95.5833 84.6042 95 86.3125 94.125 88.3125C93.2917 90.2708 92.1042 92.375 90.5625 94.625C89.0208 96.875 87.0208 98.9583 84.5625 100.875C82.1458 102.792 79.1875 104.375 75.6875 105.625C72.1875 106.875 68.0625 107.5 63.3125 107.5C60.4375 107.5 57.7708 107.25 55.3125 106.75C52.8958 106.208 50.7083 105.562 48.75 104.812C46.8333 104.021 45.125 103.167 43.625 102.25C42.125 101.292 40.875 100.396 39.875 99.5625C37.75 98.3542 35.7083 96.8125 33.75 94.9375C31.7917 93.0625 30.0625 90.8125 28.5625 88.1875C27.0625 85.5625 25.8542 82.5208 24.9375 79.0625C24.0625 75.5625 23.625 71.6042 23.625 67.1875C23.625 62.7708 24.2083 58.5208 25.375 54.4375C26.5417 50.3542 28.1667 46.5417 30.25 43C32.375 39.4583 34.8958 36.25 37.8125 33.375C40.7292 30.5 43.9375 28.0417 47.4375 26C50.9375 23.9583 54.6667 22.375 58.625 21.25C62.625 20.125 66.7292 19.5625 70.9375 19.5625Z"/>
</mask>
<path d="M70.9375 19.5625C72.4375 19.5625 74.1042 19.6875 75.9375 19.9375C77.8125 20.1875 79.6458 20.6042 81.4375 21.1875C83.2708 21.7708 84.9583 22.5417 86.5 23.5C88.0417 24.4167 89.2292 25.5833 90.0625 27C91.1042 27.75 92.0417 28.8542 92.875 30.3125C93.625 31.8958 94 33.3958 94 34.8125C94 36.3958 93.7083 37.8542 93.125 39.1875C92.5833 40.5208 91.875 41.7292 91 42.8125C90.125 43.8958 89.1667 44.8542 88.125 45.6875C87.125 46.5208 86.1458 47.2292 85.1875 47.8125C84.2292 48.3542 83.3958 48.7708 82.6875 49.0625C81.9792 49.3542 81.5208 49.5 81.3125 49.5C81.1042 49.5 80.75 49.3958 80.25 49.1875C79.7917 48.9792 79.3333 48.7292 78.875 48.4375C78.3333 48.1458 77.75 47.7917 77.125 47.375C77.125 47.3333 77.5208 47.0833 78.3125 46.625C79.1042 46.1667 79.9792 45.4583 80.9375 44.5C81.9375 43.5417 82.8333 42.2917 83.625 40.75C84.4167 39.1667 84.8125 37.2292 84.8125 34.9375C84.4375 34.1875 83.9167 33.4792 83.25 32.8125C82.5833 32.1042 81.7292 31.5 80.6875 31C79.6458 30.4583 78.375 30.0208 76.875 29.6875C75.4167 29.3542 73.6667 29.1875 71.625 29.1875C70.9167 29.1875 69.8333 29.2917 68.375 29.5C66.9167 29.7083 65.2292 30.0833 63.3125 30.625C61.3958 31.1667 59.3125 31.9167 57.0625 32.875C54.8542 33.7917 52.625 35.0208 50.375 36.5625C48.1667 38.0625 46.0208 39.8958 43.9375 42.0625C41.8958 44.1875 40.0833 46.7083 38.5 49.625C36.9167 52.5 35.6458 55.8125 34.6875 59.5625C33.7708 63.3125 33.3125 67.5625 33.3125 72.3125C33.3125 74.8958 33.5208 77.25 33.9375 79.375C34.3542 81.4583 34.8958 83.3542 35.5625 85.0625C36.2708 86.7292 37.0833 88.2292 38 89.5625C38.9167 90.8542 39.875 92.0208 40.875 93.0625C41.5 93.3958 42.2083 93.8333 43 94.375C43.7917 94.875 44.8542 95.375 46.1875 95.875C47.5625 96.3333 49.3125 96.75 51.4375 97.125C53.5625 97.4583 56.2708 97.625 59.5625 97.625C62.3958 97.625 65.0833 97.2917 67.625 96.625C70.2083 95.9583 72.6042 95.1042 74.8125 94.0625C77.0625 93.0208 79.125 91.875 81 90.625C82.875 89.3333 84.5208 88.0833 85.9375 86.875C87.3958 85.625 88.6042 84.5 89.5625 83.5C90.5208 82.4583 91.1875 81.6667 91.5625 81.125C92.3542 80.0417 92.9167 79.3542 93.25 79.0625C93.5833 78.7292 93.875 78.5625 94.125 78.5625C94.3333 78.5625 94.5208 78.5833 94.6875 78.625C94.8958 78.6667 95.1042 78.6875 95.3125 78.6875C95.6875 78.6875 95.9167 78.5 96 78.125C96.0833 77.75 96.1875 77.5625 96.3125 77.5625C96.3958 77.5625 96.4583 77.7292 96.5 78.0625C96.5417 78.3958 96.5625 78.7917 96.5625 79.25C96.5625 79.5 96.5417 79.75 96.5 80C96.4583 80.2083 96.4375 80.4167 96.4375 80.625C96.3958 80.875 96.2083 81.7292 95.875 83.1875C95.5833 84.6042 95 86.3125 94.125 88.3125C93.2917 90.2708 92.1042 92.375 90.5625 94.625C89.0208 96.875 87.0208 98.9583 84.5625 100.875C82.1458 102.792 79.1875 104.375 75.6875 105.625C72.1875 106.875 68.0625 107.5 63.3125 107.5C60.4375 107.5 57.7708 107.25 55.3125 106.75C52.8958 106.208 50.7083 105.562 48.75 104.812C46.8333 104.021 45.125 103.167 43.625 102.25C42.125 101.292 40.875 100.396 39.875 99.5625C37.75 98.3542 35.7083 96.8125 33.75 94.9375C31.7917 93.0625 30.0625 90.8125 28.5625 88.1875C27.0625 85.5625 25.8542 82.5208 24.9375 79.0625C24.0625 75.5625 23.625 71.6042 23.625 67.1875C23.625 62.7708 24.2083 58.5208 25.375 54.4375C26.5417 50.3542 28.1667 46.5417 30.25 43C32.375 39.4583 34.8958 36.25 37.8125 33.375C40.7292 30.5 43.9375 28.0417 47.4375 26C50.9375 23.9583 54.6667 22.375 58.625 21.25C62.625 20.125 66.7292 19.5625 70.9375 19.5625Z" fill="#C64453"/>
<path d="M75.9375 19.9375L75.5322 22.91L75.541 22.9112L75.9375 19.9375ZM81.4375 21.1875L80.5087 24.0401L80.5183 24.0432L80.5279 24.0463L81.4375 21.1875ZM86.5 23.5L84.9162 26.0479L84.9413 26.0635L84.9668 26.0786L86.5 23.5ZM90.0625 27L87.4767 28.5211L87.797 29.0655L88.3096 29.4346L90.0625 27ZM92.875 30.3125L95.5862 29.0282L95.5369 28.9241L95.4797 28.8241L92.875 30.3125ZM93.125 39.1875L90.3765 37.985L90.3606 38.0215L90.3456 38.0584L93.125 39.1875ZM91 42.8125L88.6662 40.9275L91 42.8125ZM88.125 45.6875L86.2509 43.3449L86.2275 43.3636L86.2044 43.3828L88.125 45.6875ZM85.1875 47.8125L86.6637 50.4242L86.7059 50.4003L86.7473 50.3751L85.1875 47.8125ZM82.6875 49.0625L83.8297 51.8365L82.6875 49.0625ZM80.25 49.1875L79.0086 51.9186L79.0521 51.9384L79.0962 51.9567L80.25 49.1875ZM78.875 48.4375L80.4856 45.9065L80.3935 45.8479L80.2973 45.7961L78.875 48.4375ZM77.125 47.375H74.125V48.9806L75.4609 49.8712L77.125 47.375ZM80.9375 44.5L78.8618 42.334L78.8387 42.3561L78.8162 42.3787L80.9375 44.5ZM83.625 40.75L86.2937 42.1204L86.3011 42.1061L86.3083 42.0916L83.625 40.75ZM84.8125 34.9375H87.8125V34.2293L87.4958 33.5959L84.8125 34.9375ZM83.25 32.8125L81.0654 34.8686L81.0965 34.9017L81.1287 34.9338L83.25 32.8125ZM80.6875 31L79.3034 33.6617L79.346 33.6838L79.3893 33.7046L80.6875 31ZM76.875 29.6875L76.2065 32.6121L76.2154 32.6141L76.2242 32.6161L76.875 29.6875ZM57.0625 32.875L58.2126 35.6458L58.2254 35.6405L58.2381 35.6351L57.0625 32.875ZM50.375 36.5625L52.0607 39.0442L52.0707 39.0373L50.375 36.5625ZM43.9375 42.0625L41.775 39.9832L41.7742 39.984L43.9375 42.0625ZM38.5 49.625L41.1278 51.0722L41.1322 51.0643L41.1366 51.0563L38.5 49.625ZM34.6875 59.5625L31.7809 58.8197L31.777 58.8349L31.7733 58.8501L34.6875 59.5625ZM33.9375 79.375L30.9935 79.9522L30.9958 79.9633L33.9375 79.375ZM35.5625 85.0625L32.7678 86.1531L32.784 86.1948L32.8015 86.2359L35.5625 85.0625ZM38 89.5625L35.5279 91.2621L35.5405 91.2805L35.5535 91.2987L38 89.5625ZM40.875 93.0625L38.7108 95.1401L39.0417 95.4847L39.4632 95.7096L40.875 93.0625ZM43 94.375L41.3059 96.8509L41.3514 96.882L41.398 96.9115L43 94.375ZM46.1875 95.875L45.1341 98.684L45.1861 98.7035L45.2388 98.721L46.1875 95.875ZM51.4375 97.125L50.9161 100.079L50.9443 100.084L50.9726 100.089L51.4375 97.125ZM67.625 96.625L66.8754 93.7201L66.8639 93.7232L67.625 96.625ZM74.8125 94.0625L73.5521 91.3401L73.5424 91.3446L73.5326 91.3492L74.8125 94.0625ZM81 90.625L82.6641 93.1212L82.6831 93.1085L82.7019 93.0955L81 90.625ZM85.9375 86.875L87.8843 89.1575L87.8899 89.1528L85.9375 86.875ZM89.5625 83.5L91.7285 85.5757L91.7496 85.5537L91.7703 85.5312L89.5625 83.5ZM91.5625 81.125L89.1403 79.355L89.1177 79.3859L89.0959 79.4174L91.5625 81.125ZM93.25 79.0625L95.2255 81.3202L95.3007 81.2545L95.3713 81.1838L93.25 79.0625ZM94.6875 78.625L93.9599 81.5354L94.0291 81.5527L94.0992 81.5667L94.6875 78.625ZM96.5 80L99.4417 80.5883L99.4512 80.5409L99.4592 80.4932L96.5 80ZM96.4375 80.625L99.3967 81.1182L99.4375 80.8733V80.625H96.4375ZM95.875 83.1875L92.9504 82.519L92.9432 82.5507L92.9366 82.5825L95.875 83.1875ZM94.125 88.3125L91.3765 87.11L91.3705 87.1239L91.3645 87.1378L94.125 88.3125ZM84.5625 100.875L82.7179 98.5091L82.7081 98.5168L82.6983 98.5245L84.5625 100.875ZM55.3125 106.75L54.6564 109.677L54.6854 109.684L54.7146 109.69L55.3125 106.75ZM48.75 104.812L47.6047 107.585L47.6407 107.6L47.6771 107.614L48.75 104.812ZM43.625 102.25L42.0098 104.778L42.0351 104.794L42.0606 104.81L43.625 102.25ZM39.875 99.5625L41.7956 97.2578L41.5902 97.0867L41.3579 96.9546L39.875 99.5625ZM24.9375 79.0625L22.0271 79.7901L22.0322 79.8107L22.0376 79.8311L24.9375 79.0625ZM30.25 43L27.6775 41.4565L27.6708 41.4677L27.6642 41.4789L30.25 43ZM37.8125 33.375L35.7065 31.2385L37.8125 33.375ZM58.625 21.25L57.8128 18.362L57.8048 18.3643L58.625 21.25ZM70.9375 22.5625C72.275 22.5625 73.8035 22.6743 75.5322 22.91L76.3428 16.965C74.4048 16.7007 72.6 16.5625 70.9375 16.5625V22.5625ZM75.541 22.9112C77.236 23.1372 78.8911 23.5134 80.5087 24.0401L82.3663 18.3349C80.4005 17.6949 78.389 17.2378 76.334 16.9638L75.541 22.9112ZM80.5279 24.0463C82.1386 24.5588 83.5977 25.2283 84.9162 26.0479L88.0838 20.9521C86.3189 19.8551 84.4031 18.9829 82.3471 18.3287L80.5279 24.0463ZM84.9668 26.0786C86.1148 26.7612 86.9225 27.5789 87.4767 28.5211L92.6483 25.4789C91.5358 23.5877 89.9686 22.0721 88.0332 20.9214L84.9668 26.0786ZM88.3096 29.4346C88.913 29.869 89.5871 30.6053 90.2703 31.8009L95.4797 28.8241C94.4963 27.103 93.2954 25.631 91.8154 24.5654L88.3096 29.4346ZM90.1638 31.5968C90.7676 32.8715 91 33.9324 91 34.8125H97C97 32.8593 96.4824 30.9202 95.5862 29.0282L90.1638 31.5968ZM91 34.8125C91 36.0187 90.7798 37.0632 90.3765 37.985L95.8735 40.39C96.6368 38.6452 97 36.773 97 34.8125H91ZM90.3456 38.0584C89.9109 39.1285 89.3503 40.0805 88.6662 40.9275L93.3338 44.6975C94.3997 43.3778 95.2558 41.9132 95.9044 40.3166L90.3456 38.0584ZM88.6662 40.9275C87.9215 41.8495 87.116 42.6528 86.2509 43.3449L89.9991 48.0301C91.2173 47.0555 92.3285 45.9422 93.3338 44.6975L88.6662 40.9275ZM86.2044 43.3828C85.3006 44.1361 84.4414 44.7546 83.6277 45.2499L86.7473 50.3751C87.8502 49.7038 88.9494 48.9056 90.0456 47.9922L86.2044 43.3828ZM83.7113 45.2008C82.8186 45.7054 82.1015 46.0594 81.5453 46.2885L83.8297 51.8365C84.6901 51.4823 85.6398 51.0029 86.6637 50.4242L83.7113 45.2008ZM81.5453 46.2885C81.3912 46.3519 81.26 46.4036 81.1498 46.4449C81.0384 46.4867 80.9575 46.5145 80.9029 46.5318C80.844 46.5506 80.8391 46.5497 80.8745 46.542C80.8939 46.5377 80.9382 46.5286 81.0021 46.52C81.0626 46.5118 81.1709 46.5 81.3125 46.5V52.5C81.9244 52.5 82.482 52.3258 82.7221 52.2494C83.0619 52.1413 83.4382 51.9978 83.8297 51.8365L81.5453 46.2885ZM81.3125 46.5C81.4094 46.5 81.4884 46.5059 81.5449 46.512C81.6021 46.518 81.6463 46.5253 81.6752 46.5306C81.7302 46.5408 81.7536 46.5486 81.7371 46.5438C81.7229 46.5396 81.6877 46.5286 81.6284 46.5069C81.5699 46.4855 81.4956 46.4565 81.4038 46.4183L79.0962 51.9567C79.4048 52.0853 79.7268 52.2067 80.0441 52.3C80.3191 52.3808 80.7824 52.5 81.3125 52.5V46.5ZM81.4914 46.4564C81.1702 46.3104 80.8349 46.1288 80.4856 45.9065L77.2644 50.9685C77.8318 51.3295 78.4131 51.6479 79.0086 51.9186L81.4914 46.4564ZM80.2973 45.7961C79.8542 45.5575 79.3522 45.2543 78.7891 44.8788L75.4609 49.8712C76.1478 50.3291 76.8125 50.7342 77.4527 51.0789L80.2973 45.7961ZM80.125 47.375C80.125 47.945 79.9629 48.3783 79.8595 48.607C79.7491 48.851 79.628 49.0305 79.5518 49.1348C79.4026 49.3389 79.2617 49.4755 79.2068 49.5275C79.0855 49.6424 78.9881 49.713 78.9788 49.7199C78.9402 49.7483 78.9419 49.7445 79.0239 49.6927C79.1716 49.5994 79.4281 49.4456 79.8156 49.2213L76.8094 44.0287C76.4052 44.2627 76.068 44.4631 75.8199 44.6198C75.704 44.693 75.5572 44.7881 75.4196 44.8895C75.3608 44.9328 75.2264 45.0334 75.0803 45.1718C75.0131 45.2355 74.8628 45.3821 74.7075 45.5947C74.6451 45.6801 74.125 46.354 74.125 47.375H80.125ZM79.8156 49.2213C80.9133 48.5858 81.9955 47.6846 83.0588 46.6213L78.8162 42.3787C77.9628 43.232 77.2951 43.7475 76.8094 44.0287L79.8156 49.2213ZM83.0132 46.666C84.3054 45.4276 85.3865 43.8871 86.2937 42.1204L80.9563 39.3796C80.2802 40.6963 79.5696 41.6557 78.8618 42.334L83.0132 46.666ZM86.3083 42.0916C87.3603 39.9875 87.8125 37.5624 87.8125 34.9375H81.8125C81.8125 36.8959 81.473 38.3458 80.9417 39.4084L86.3083 42.0916ZM87.4958 33.5959C86.9599 32.524 86.238 31.5578 85.3713 30.6912L81.1287 34.9338C81.5954 35.4005 81.9151 35.851 82.1292 36.2791L87.4958 33.5959ZM85.4346 30.7564C84.4722 29.7339 83.2991 28.9258 81.9857 28.2954L79.3893 33.7046C80.1593 34.0742 80.6944 34.4745 81.0654 34.8686L85.4346 30.7564ZM82.0716 28.3383C80.7396 27.6457 79.2071 27.1326 77.5258 26.7589L76.2242 32.6161C77.5429 32.9091 78.5521 33.271 79.3034 33.6617L82.0716 28.3383ZM77.5435 26.7629C75.8028 26.3651 73.8162 26.1875 71.625 26.1875V32.1875C73.5172 32.1875 75.0305 32.3433 76.2065 32.6121L77.5435 26.7629ZM71.625 26.1875C70.6923 26.1875 69.4334 26.3183 67.9507 26.5302L68.7993 32.4698C70.2333 32.265 71.141 32.1875 71.625 32.1875V26.1875ZM67.9507 26.5302C66.3234 26.7626 64.5003 27.1718 62.4966 27.7381L64.1284 33.5119C65.958 32.9949 67.5099 32.654 68.7993 32.4698L67.9507 26.5302ZM62.4966 27.7381C60.4336 28.3211 58.2288 29.1175 55.8869 30.1149L58.2381 35.6351C60.3962 34.7159 62.358 34.0122 64.1284 33.5119L62.4966 27.7381ZM55.9124 30.1042C53.4879 31.1106 51.077 32.4448 48.6793 34.0877L52.0707 39.0373C54.173 37.5968 56.2205 36.4727 58.2126 35.6458L55.9124 30.1042ZM48.6894 34.0808C46.2885 35.7116 43.9851 37.6847 41.775 39.9832L46.1 44.1418C48.0566 42.107 50.0448 40.4134 52.0606 39.0442L48.6894 34.0808ZM41.7742 39.984C39.5248 42.3252 37.559 45.0703 35.8634 48.1937L41.1366 51.0563C42.6077 48.3463 44.2669 46.0498 46.1008 44.141L41.7742 39.984ZM35.8722 48.1778C34.147 51.3103 32.7911 54.8666 31.7809 58.8197L37.5941 60.3053C38.5005 56.7584 39.6863 53.6897 41.1278 51.0722L35.8722 48.1778ZM31.7733 58.8501C30.7884 62.8795 30.3125 67.3752 30.3125 72.3125H36.3125C36.3125 67.7498 36.7533 63.7455 37.6017 60.2749L31.7733 58.8501ZM30.3125 72.3125C30.3125 75.0538 30.5333 77.6049 30.9936 79.9522L36.8814 78.7978C36.5084 76.8951 36.3125 74.7379 36.3125 72.3125H30.3125ZM30.9958 79.9633C31.4415 82.1918 32.0285 84.2588 32.7678 86.1531L38.3572 83.9719C37.7632 82.4495 37.2669 80.7249 36.8792 78.7867L30.9958 79.9633ZM32.8015 86.2359C33.5792 88.0657 34.4851 89.7453 35.5279 91.2621L40.4721 87.8629C39.6816 86.7131 38.9625 85.3927 38.3235 83.8891L32.8015 86.2359ZM35.5535 91.2987C36.5476 92.6995 37.5992 93.9821 38.7108 95.1401L43.0392 90.9849C42.1508 90.0596 41.2857 89.0088 40.4465 87.8263L35.5535 91.2987ZM39.4632 95.7096C39.964 95.9766 40.5757 96.3513 41.3059 96.8509L44.6941 91.8991C43.841 91.3154 43.036 90.815 42.2868 90.4154L39.4632 95.7096ZM41.398 96.9115C42.4274 97.5616 43.6972 98.1451 45.1341 98.684L47.2409 93.066C46.0112 92.6049 45.1559 92.1884 44.602 91.8385L41.398 96.9115ZM45.2388 98.721C46.8031 99.2425 48.709 99.6899 50.9161 100.079L51.9589 94.1706C49.916 93.8101 48.3219 93.4242 47.1362 93.029L45.2388 98.721ZM50.9726 100.089C53.3094 100.455 56.1876 100.625 59.5625 100.625V94.625C56.3541 94.625 53.8156 94.4614 51.9024 94.1612L50.9726 100.089ZM59.5625 100.625C62.6327 100.625 65.5774 100.264 68.3861 99.5268L66.8639 93.7232C64.5893 94.3198 62.1589 94.625 59.5625 94.625V100.625ZM68.3746 99.5298C71.1237 98.8204 73.6988 97.9048 76.0924 96.7758L73.5326 91.3492C71.5095 92.3035 69.293 93.0963 66.8754 93.7202L68.3746 99.5298ZM76.0729 96.7849C78.4493 95.6847 80.6485 94.4649 82.6641 93.1212L79.3359 88.1288C77.6015 89.2851 75.6757 90.357 73.5521 91.3401L76.0729 96.7849ZM82.7019 93.0955C84.6438 91.7578 86.3744 90.4454 87.8843 89.1575L83.9907 84.5925C82.6673 85.7212 81.1062 86.9089 79.2981 88.1545L82.7019 93.0955ZM87.8899 89.1528C89.3965 87.8613 90.682 86.6676 91.7285 85.5757L87.3965 81.4243C86.5263 82.3324 85.3951 83.3887 83.9851 84.5972L87.8899 89.1528ZM91.7703 85.5312C92.7412 84.4758 93.5283 83.556 94.0291 82.8326L89.0959 79.4174C88.8467 79.7773 88.3004 80.4409 87.3547 81.4688L91.7703 85.5312ZM93.9847 82.895C94.3627 82.3777 94.666 81.9826 94.9 81.6966C95.1586 81.3805 95.2541 81.2952 95.2255 81.3202L91.2745 76.8048C90.6484 77.3526 89.8967 78.3199 89.1403 79.355L93.9847 82.895ZM95.3713 81.1838C95.4189 81.1362 95.365 81.2021 95.2072 81.2922C95.0498 81.3822 94.6713 81.5625 94.125 81.5625V75.5625C92.6168 75.5625 91.5795 76.4903 91.1287 76.9412L95.3713 81.1838ZM94.125 81.5625C94.138 81.5625 94.0752 81.5643 93.9599 81.5354L95.4151 75.7146C94.9664 75.6024 94.5286 75.5625 94.125 75.5625V81.5625ZM94.0992 81.5667C94.4974 81.6464 94.9027 81.6875 95.3125 81.6875V75.6875C95.3056 75.6875 95.2943 75.6869 95.2758 75.6833L94.0992 81.5667ZM95.3125 81.6875C96.004 81.6875 96.885 81.5072 97.6653 80.8687C98.4376 80.2369 98.7847 79.423 98.9286 78.7758L93.0714 77.4742C93.1319 77.202 93.3228 76.6694 93.8659 76.225C94.4171 75.7741 94.996 75.6875 95.3125 75.6875V81.6875ZM98.9286 78.7758C98.9487 78.6851 98.9206 78.8765 98.7631 79.1601C98.6807 79.3084 98.4874 79.6208 98.1224 79.9195C97.7182 80.2502 97.0963 80.5625 96.3125 80.5625V74.5625C94.5423 74.5625 93.7086 75.9034 93.5182 76.2462C93.2565 76.7172 93.1346 77.1899 93.0714 77.4742L98.9286 78.7758ZM96.3125 80.5625C95.2072 80.5625 94.4668 79.9732 94.1134 79.5693C93.7936 79.2039 93.6565 78.8572 93.6129 78.7409C93.5185 78.489 93.5106 78.3341 93.5232 78.4346L99.4768 77.6904C99.4477 77.4576 99.3878 77.0526 99.2309 76.6341C99.156 76.4345 98.985 76.0253 98.6288 75.6182C98.2389 75.1726 97.4594 74.5625 96.3125 74.5625V80.5625ZM93.5232 78.4346C93.545 78.6093 93.5625 78.8746 93.5625 79.25H99.5625C99.5625 78.7087 99.5383 78.1824 99.4768 77.6904L93.5232 78.4346ZM93.5625 79.25C93.5625 79.3325 93.5557 79.4175 93.5408 79.5068L99.4592 80.4932C99.5276 80.0825 99.5625 79.6675 99.5625 79.25H93.5625ZM93.5583 79.4117C93.4786 79.8099 93.4375 80.2152 93.4375 80.625H99.4375C99.4375 80.6181 99.4381 80.6068 99.4417 80.5883L93.5583 79.4117ZM93.4783 80.1318C93.4784 80.1314 93.4694 80.1818 93.4415 80.3161C93.4161 80.4386 93.381 80.6022 93.3354 80.8099C93.2443 81.2247 93.1163 81.7933 92.9504 82.519L98.7996 83.856C99.1206 82.4514 99.3362 81.4808 99.3967 81.1182L93.4783 80.1318ZM92.9366 82.5825C92.7028 83.7185 92.2054 85.2155 91.3765 87.11L96.8735 89.515C97.7946 87.4095 98.4639 85.4898 98.8134 83.7925L92.9366 82.5825ZM91.3645 87.1378C90.6271 88.8708 89.5468 90.7999 88.0877 92.9293L93.0373 96.3207C94.6616 93.9501 95.9562 91.6708 96.8855 89.4872L91.3645 87.1378ZM88.0877 92.9293C86.7433 94.8914 84.9671 96.7555 82.7179 98.5091L86.4071 103.241C89.0746 101.161 91.2984 98.8586 93.0373 96.3207L88.0877 92.9293ZM82.6983 98.5245C80.5853 100.2 77.9307 101.638 74.6785 102.8L76.6965 108.45C80.4443 107.112 83.7063 105.383 86.4267 103.225L82.6983 98.5245ZM74.6785 102.8C71.5782 103.907 67.8097 104.5 63.3125 104.5V110.5C68.3153 110.5 72.7968 109.843 76.6965 108.45L74.6785 102.8ZM63.3125 104.5C60.6098 104.5 58.1459 104.265 55.9104 103.81L54.7146 109.69C57.3958 110.235 60.2652 110.5 63.3125 110.5V104.5ZM55.9686 103.823C53.6692 103.307 51.6239 102.701 49.8229 102.011L47.6771 107.614C49.7928 108.424 52.1225 109.109 54.6564 109.677L55.9686 103.823ZM49.8953 102.04C48.0986 101.298 46.5342 100.512 45.1894 99.6902L42.0606 104.81C43.7158 105.821 45.568 106.744 47.6047 107.585L49.8953 102.04ZM45.2402 99.7219C43.8109 98.8087 42.6707 97.9871 41.7956 97.2578L37.9544 101.867C39.0793 102.805 40.4391 103.775 42.0098 104.778L45.2402 99.7219ZM41.3579 96.9546C39.4695 95.8808 37.6238 94.4931 35.8247 92.7706L31.6753 97.1044C33.7928 99.1319 36.0305 100.828 38.3921 102.17L41.3579 96.9546ZM35.8247 92.7706C34.0972 91.1165 32.5404 89.1021 31.1672 86.6991L25.9578 89.6759C27.5846 92.5229 29.4862 95.0085 31.6753 97.1044L35.8247 92.7706ZM31.1672 86.6991C29.8175 84.337 28.6991 81.5451 27.8374 78.2939L22.0376 79.8311C23.0092 83.4966 24.3075 86.788 25.9578 89.6759L31.1672 86.6991ZM27.8479 78.3349C27.0439 75.1189 26.625 71.4114 26.625 67.1875H20.625C20.625 71.7969 21.0811 76.0061 22.0271 79.7901L27.8479 78.3349ZM26.625 67.1875C26.625 63.0384 27.1725 59.0664 28.2596 55.2617L22.4904 53.6133C21.2442 57.9753 20.625 62.5033 20.625 67.1875H26.625ZM28.2596 55.2617C29.3589 51.4141 30.8854 47.8368 32.8358 44.5211L27.6642 41.4789C25.4479 45.2466 23.7245 49.2942 22.4904 53.6133L28.2596 55.2617ZM32.8225 44.5435C34.8187 41.2165 37.1832 38.2078 39.9185 35.5115L35.7065 31.2385C32.6085 34.2922 29.9313 37.7002 27.6775 41.4565L32.8225 44.5435ZM39.9185 35.5115C42.6587 32.8104 45.6678 30.5054 48.9491 28.5913L45.9259 23.4087C42.2072 25.5779 38.7996 28.1896 35.7065 31.2385L39.9185 35.5115ZM48.9491 28.5913C52.2285 26.6784 55.7249 25.193 59.4452 24.1357L57.8048 18.3643C53.6084 19.557 49.6465 21.2383 45.9259 23.4087L48.9491 28.5913ZM59.4372 24.138C63.1695 23.0883 67.0002 22.5625 70.9375 22.5625V16.5625C66.4581 16.5625 62.0805 17.1617 57.8128 18.362L59.4372 24.138Z" fill="#2B4450" mask="url(#path-1-outside-1_85_33)"/>
</g>
<defs>
<clipPath id="clip0_85_33">
<rect width="128" height="128" fill="white"/>
</clipPath>
</defs>
</svg>
