<svg width="254" height="42" viewBox="0 0 254 42" fill="none" xmlns="http://www.w3.org/2000/svg">
<g filter="url(#filter0_i_83_17)">
<rect y="1" width="254" height="40.1333" rx="20" fill="url(#paint0_linear_83_17)"/>
</g>
<g filter="url(#filter1_d_83_17)">
<path d="M110 20.7222C110 11.488 117.486 4 126.72 4V4C135.954 4 143.44 11.488 143.44 20.7222V20.7222C143.44 29.9564 135.954 37.4444 126.72 37.4444V37.4444C117.486 37.4444 110 29.9564 110 20.7222V20.7222Z" fill="#A2B6F2"/>
</g>
<g filter="url(#filter2_i_83_17)">
<path d="M120.298 14.0333L121.531 29.2244C121.531 30.0709 122.216 30.7555 123.062 30.7555H130.43C131.276 30.7555 131.96 30.0709 131.96 29.2244L133.178 14.0333H120.298ZM123.517 27.8814L123.167 15.7055H124.133L124.494 27.8814H123.517ZM127.19 27.8814H126.25V15.7055H127.19V27.8814ZM129.923 27.8814H128.951L129.306 15.7055H130.273L129.923 27.8814ZM132.363 12.152H130.482L129.108 10.9501C128.914 10.7829 128.669 10.6888 128.418 10.6888H125.032C124.776 10.6888 124.525 10.7829 124.332 10.9501L122.958 12.152H121.077C120.157 12.152 119.509 12.591 119.509 13.5107H133.93C133.93 12.591 133.282 12.152 132.363 12.152Z" fill="#5E76BF"/>
</g>
<path d="M156.369 15.4H157.329V21H156.369V15.4ZM158.177 21H156.953V20.112H158.153C158.431 20.112 158.687 20.072 158.921 19.992C159.156 19.912 159.359 19.792 159.529 19.632C159.705 19.472 159.841 19.272 159.937 19.032C160.039 18.792 160.089 18.5147 160.089 18.2C160.089 17.8853 160.039 17.608 159.937 17.368C159.841 17.128 159.705 16.928 159.529 16.768C159.359 16.608 159.156 16.488 158.921 16.408C158.687 16.328 158.431 16.288 158.153 16.288H156.953V15.4H158.177C158.748 15.4 159.249 15.5173 159.681 15.752C160.113 15.9813 160.449 16.3067 160.689 16.728C160.935 17.144 161.057 17.6347 161.057 18.2C161.057 18.7653 160.935 19.2587 160.689 19.68C160.449 20.096 160.113 20.4213 159.681 20.656C159.249 20.8853 158.748 21 158.177 21ZM162.763 17.32V21H161.907V17.32H162.763ZM163.859 18.24C163.779 18.176 163.704 18.128 163.635 18.096C163.565 18.064 163.477 18.048 163.371 18.048C163.227 18.048 163.109 18.0853 163.019 18.16C162.928 18.2347 162.861 18.3387 162.819 18.472C162.781 18.6 162.763 18.752 162.763 18.928L162.475 18.76C162.475 18.4667 162.528 18.208 162.635 17.984C162.747 17.7547 162.888 17.5733 163.059 17.44C163.235 17.3067 163.416 17.24 163.603 17.24C163.736 17.24 163.861 17.2613 163.979 17.304C164.096 17.3413 164.195 17.4107 164.275 17.512L163.859 18.24ZM165.412 19.856C165.412 19.9787 165.441 20.0853 165.5 20.176C165.558 20.2613 165.638 20.3253 165.74 20.368C165.846 20.4107 165.966 20.432 166.1 20.432C166.27 20.432 166.425 20.3973 166.564 20.328C166.708 20.2587 166.822 20.1573 166.908 20.024C166.998 19.8853 167.044 19.7253 167.044 19.544L167.172 20.024C167.172 20.2587 167.102 20.456 166.964 20.616C166.83 20.7707 166.66 20.888 166.452 20.968C166.249 21.0427 166.041 21.08 165.828 21.08C165.598 21.08 165.385 21.0347 165.188 20.944C164.99 20.8533 164.833 20.72 164.716 20.544C164.598 20.368 164.54 20.1547 164.54 19.904C164.54 19.5467 164.665 19.264 164.916 19.056C165.166 18.8427 165.521 18.736 165.98 18.736C166.225 18.736 166.436 18.7627 166.612 18.816C166.793 18.8693 166.942 18.9333 167.06 19.008C167.177 19.0773 167.26 19.1413 167.308 19.2V19.64C167.142 19.5227 166.966 19.4373 166.78 19.384C166.593 19.3307 166.396 19.304 166.188 19.304C166.006 19.304 165.86 19.328 165.748 19.376C165.636 19.4187 165.55 19.48 165.492 19.56C165.438 19.64 165.412 19.7387 165.412 19.856ZM165.14 18.28L164.788 17.672C164.953 17.5707 165.166 17.472 165.428 17.376C165.694 17.28 165.998 17.232 166.34 17.232C166.644 17.232 166.91 17.2773 167.14 17.368C167.374 17.4587 167.558 17.5893 167.692 17.76C167.825 17.9253 167.892 18.1307 167.892 18.376V21H167.044V18.544C167.044 18.4267 167.022 18.3307 166.98 18.256C166.942 18.1813 166.889 18.12 166.82 18.072C166.75 18.024 166.668 17.9893 166.572 17.968C166.476 17.9467 166.372 17.936 166.26 17.936C166.089 17.936 165.926 17.9573 165.772 18C165.622 18.0373 165.492 18.0853 165.38 18.144C165.273 18.1973 165.193 18.2427 165.14 18.28ZM168.691 21.248H169.547C169.552 21.4133 169.597 21.5627 169.683 21.696C169.773 21.8293 169.896 21.9333 170.051 22.008C170.205 22.0827 170.384 22.12 170.587 22.12C170.768 22.12 170.941 22.0773 171.107 21.992C171.272 21.9067 171.405 21.776 171.507 21.6C171.613 21.424 171.667 21.1973 171.667 20.92V17.32H172.515V20.92C172.515 21.3627 172.424 21.728 172.243 22.016C172.067 22.304 171.835 22.5173 171.547 22.656C171.259 22.8 170.947 22.872 170.611 22.872C170.211 22.872 169.869 22.8027 169.587 22.664C169.304 22.5307 169.085 22.3413 168.931 22.096C168.781 21.8507 168.701 21.568 168.691 21.248ZM168.619 19.144C168.619 18.7333 168.701 18.3893 168.867 18.112C169.032 17.8293 169.251 17.6133 169.523 17.464C169.8 17.3147 170.096 17.24 170.411 17.24C170.72 17.24 170.989 17.3173 171.219 17.472C171.453 17.6213 171.637 17.8373 171.771 18.12C171.909 18.4027 171.979 18.744 171.979 19.144C171.979 19.5387 171.909 19.8773 171.771 20.16C171.637 20.4427 171.453 20.6613 171.219 20.816C170.989 20.9653 170.72 21.04 170.411 21.04C170.096 21.04 169.8 20.9653 169.523 20.816C169.251 20.6667 169.032 20.4507 168.867 20.168C168.701 19.8853 168.619 19.544 168.619 19.144ZM169.515 19.144C169.515 19.3893 169.565 19.5973 169.667 19.768C169.768 19.9387 169.901 20.0693 170.067 20.16C170.237 20.2453 170.421 20.288 170.619 20.288C170.784 20.288 170.947 20.2453 171.107 20.16C171.272 20.0747 171.405 19.9467 171.507 19.776C171.613 19.6 171.667 19.3893 171.667 19.144C171.667 18.952 171.635 18.7867 171.571 18.648C171.512 18.504 171.432 18.384 171.331 18.288C171.229 18.1867 171.115 18.112 170.987 18.064C170.864 18.016 170.741 17.992 170.619 17.992C170.421 17.992 170.237 18.0373 170.067 18.128C169.901 18.2133 169.768 18.3413 169.667 18.512C169.565 18.6827 169.515 18.8933 169.515 19.144ZM175.473 17.32H177.561V18.08H175.473V17.32ZM176.089 16.04H176.945V21H176.089V16.04ZM177.877 19.16C177.877 18.7813 177.962 18.448 178.133 18.16C178.309 17.872 178.546 17.648 178.845 17.488C179.143 17.3227 179.482 17.24 179.861 17.24C180.239 17.24 180.575 17.3227 180.869 17.488C181.167 17.648 181.405 17.872 181.581 18.16C181.757 18.448 181.845 18.7813 181.845 19.16C181.845 19.5333 181.757 19.8667 181.581 20.16C181.405 20.448 181.167 20.6747 180.869 20.84C180.575 21 180.239 21.08 179.861 21.08C179.482 21.08 179.143 21 178.845 20.84C178.546 20.6747 178.309 20.448 178.133 20.16C177.962 19.8667 177.877 19.5333 177.877 19.16ZM178.765 19.16C178.765 19.3893 178.813 19.592 178.909 19.768C179.005 19.9387 179.135 20.0747 179.301 20.176C179.466 20.272 179.653 20.32 179.861 20.32C180.063 20.32 180.247 20.272 180.413 20.176C180.583 20.0747 180.717 19.9387 180.813 19.768C180.909 19.592 180.957 19.3893 180.957 19.16C180.957 18.9307 180.909 18.728 180.813 18.552C180.717 18.376 180.583 18.24 180.413 18.144C180.247 18.048 180.063 18 179.861 18C179.653 18 179.466 18.048 179.301 18.144C179.135 18.24 179.005 18.376 178.909 18.552C178.813 18.728 178.765 18.9307 178.765 19.16ZM185.095 15.4H186.039V19.12C186.039 19.4667 186.129 19.7467 186.311 19.96C186.497 20.168 186.772 20.272 187.135 20.272C187.492 20.272 187.764 20.168 187.951 19.96C188.137 19.7467 188.231 19.4667 188.231 19.12V15.4H189.175V19.16C189.175 19.4693 189.124 19.7467 189.023 19.992C188.927 20.232 188.788 20.4373 188.607 20.608C188.425 20.7787 188.209 20.9093 187.959 21C187.708 21.0907 187.433 21.136 187.135 21.136C186.836 21.136 186.561 21.0907 186.311 21C186.06 20.9093 185.841 20.7787 185.655 20.608C185.473 20.4373 185.335 20.232 185.239 19.992C185.143 19.7467 185.095 19.4693 185.095 19.16V15.4ZM191.153 22.76H190.281V17.32H191.153V22.76ZM194.201 19.16C194.201 19.5653 194.118 19.9147 193.953 20.208C193.787 20.496 193.569 20.7173 193.297 20.872C193.025 21.0213 192.729 21.096 192.409 21.096C192.094 21.096 191.819 21.0187 191.585 20.864C191.355 20.704 191.177 20.48 191.049 20.192C190.926 19.8987 190.865 19.5547 190.865 19.16C190.865 18.76 190.926 18.416 191.049 18.128C191.177 17.84 191.355 17.6187 191.585 17.464C191.819 17.304 192.094 17.224 192.409 17.224C192.729 17.224 193.025 17.3013 193.297 17.456C193.569 17.6053 193.787 17.824 193.953 18.112C194.118 18.4 194.201 18.7493 194.201 19.16ZM193.305 19.16C193.305 18.9147 193.254 18.7067 193.153 18.536C193.051 18.36 192.915 18.2293 192.745 18.144C192.579 18.0533 192.395 18.008 192.193 18.008C192.027 18.008 191.865 18.0533 191.705 18.144C191.545 18.2293 191.411 18.3573 191.305 18.528C191.203 18.6987 191.153 18.9093 191.153 19.16C191.153 19.4107 191.203 19.6213 191.305 19.792C191.411 19.9627 191.545 20.0933 191.705 20.184C191.865 20.2693 192.027 20.312 192.193 20.312C192.395 20.312 192.579 20.2693 192.745 20.184C192.915 20.0933 193.051 19.9627 193.153 19.792C193.254 19.616 193.305 19.4053 193.305 19.16ZM197.792 14.76H198.664V21H197.792V14.76ZM194.744 19.16C194.744 18.7547 194.826 18.4107 194.992 18.128C195.157 17.84 195.376 17.6213 195.648 17.472C195.925 17.3173 196.221 17.24 196.536 17.24C196.845 17.24 197.114 17.3173 197.344 17.472C197.578 17.6267 197.762 17.848 197.896 18.136C198.034 18.4187 198.104 18.76 198.104 19.16C198.104 19.5547 198.034 19.896 197.896 20.184C197.762 20.472 197.578 20.6933 197.344 20.848C197.114 21.0027 196.845 21.08 196.536 21.08C196.221 21.08 195.925 21.0053 195.648 20.856C195.376 20.7013 195.157 20.48 194.992 20.192C194.826 19.904 194.744 19.56 194.744 19.16ZM195.64 19.16C195.64 19.4053 195.69 19.616 195.792 19.792C195.893 19.968 196.026 20.1013 196.192 20.192C196.362 20.2827 196.546 20.328 196.744 20.328C196.909 20.328 197.072 20.2827 197.232 20.192C197.397 20.1013 197.53 19.9707 197.632 19.8C197.738 19.624 197.792 19.4107 197.792 19.16C197.792 18.9093 197.738 18.6987 197.632 18.528C197.53 18.352 197.397 18.2187 197.232 18.128C197.072 18.0373 196.909 17.992 196.744 17.992C196.546 17.992 196.362 18.0373 196.192 18.128C196.026 18.2187 195.893 18.352 195.792 18.528C195.69 18.704 195.64 18.9147 195.64 19.16ZM200.279 19.856C200.279 19.9787 200.308 20.0853 200.367 20.176C200.425 20.2613 200.505 20.3253 200.607 20.368C200.713 20.4107 200.833 20.432 200.967 20.432C201.137 20.432 201.292 20.3973 201.431 20.328C201.575 20.2587 201.689 20.1573 201.775 20.024C201.865 19.8853 201.911 19.7253 201.911 19.544L202.039 20.024C202.039 20.2587 201.969 20.456 201.831 20.616C201.697 20.7707 201.527 20.888 201.319 20.968C201.116 21.0427 200.908 21.08 200.695 21.08C200.465 21.08 200.252 21.0347 200.055 20.944C199.857 20.8533 199.7 20.72 199.583 20.544C199.465 20.368 199.407 20.1547 199.407 19.904C199.407 19.5467 199.532 19.264 199.783 19.056C200.033 18.8427 200.388 18.736 200.847 18.736C201.092 18.736 201.303 18.7627 201.479 18.816C201.66 18.8693 201.809 18.9333 201.927 19.008C202.044 19.0773 202.127 19.1413 202.175 19.2V19.64C202.009 19.5227 201.833 19.4373 201.647 19.384C201.46 19.3307 201.263 19.304 201.055 19.304C200.873 19.304 200.727 19.328 200.615 19.376C200.503 19.4187 200.417 19.48 200.359 19.56C200.305 19.64 200.279 19.7387 200.279 19.856ZM200.007 18.28L199.655 17.672C199.82 17.5707 200.033 17.472 200.295 17.376C200.561 17.28 200.865 17.232 201.207 17.232C201.511 17.232 201.777 17.2773 202.007 17.368C202.241 17.4587 202.425 17.5893 202.559 17.76C202.692 17.9253 202.759 18.1307 202.759 18.376V21H201.911V18.544C201.911 18.4267 201.889 18.3307 201.847 18.256C201.809 18.1813 201.756 18.12 201.687 18.072C201.617 18.024 201.535 17.9893 201.439 17.968C201.343 17.9467 201.239 17.936 201.127 17.936C200.956 17.936 200.793 17.9573 200.639 18C200.489 18.0373 200.359 18.0853 200.247 18.144C200.14 18.1973 200.06 18.2427 200.007 18.28ZM203.254 17.32H205.342V18.08H203.254V17.32ZM203.87 16.04H204.726V21H203.87V16.04ZM207.538 21.08C207.164 21.08 206.834 21 206.546 20.84C206.263 20.68 206.044 20.456 205.89 20.168C205.735 19.88 205.658 19.544 205.658 19.16C205.658 18.7707 205.735 18.432 205.89 18.144C206.05 17.856 206.274 17.6347 206.562 17.48C206.85 17.32 207.188 17.24 207.578 17.24C207.967 17.24 208.298 17.3147 208.57 17.464C208.842 17.6133 209.05 17.8293 209.194 18.112C209.343 18.3893 209.418 18.7253 209.418 19.12C209.418 19.1627 209.415 19.208 209.41 19.256C209.41 19.304 209.407 19.3387 209.402 19.36H206.17V18.768H208.666L208.402 19.136C208.418 19.104 208.434 19.0613 208.45 19.008C208.471 18.9493 208.482 18.9013 208.482 18.864C208.482 18.6667 208.442 18.496 208.362 18.352C208.287 18.208 208.18 18.096 208.042 18.016C207.908 17.936 207.751 17.896 207.57 17.896C207.351 17.896 207.164 17.944 207.01 18.04C206.855 18.136 206.738 18.2747 206.658 18.456C206.578 18.6373 206.535 18.8613 206.53 19.128C206.53 19.3947 206.57 19.6213 206.65 19.808C206.73 19.9893 206.847 20.128 207.002 20.224C207.162 20.32 207.354 20.368 207.578 20.368C207.812 20.368 208.018 20.32 208.194 20.224C208.37 20.128 208.516 19.9813 208.634 19.784L209.378 20.088C209.186 20.4187 208.938 20.6667 208.634 20.832C208.33 20.9973 207.964 21.08 207.538 21.08ZM212.713 15.4H213.673V21H212.713V15.4ZM214.521 21H213.297V20.112H214.497C214.774 20.112 215.03 20.072 215.265 19.992C215.5 19.912 215.702 19.792 215.873 19.632C216.049 19.472 216.185 19.272 216.281 19.032C216.382 18.792 216.433 18.5147 216.433 18.2C216.433 17.8853 216.382 17.608 216.281 17.368C216.185 17.128 216.049 16.928 215.873 16.768C215.702 16.608 215.5 16.488 215.265 16.408C215.03 16.328 214.774 16.288 214.497 16.288H213.297V15.4H214.521C215.092 15.4 215.593 15.5173 216.025 15.752C216.457 15.9813 216.793 16.3067 217.033 16.728C217.278 17.144 217.401 17.6347 217.401 18.2C217.401 18.7653 217.278 19.2587 217.033 19.68C216.793 20.096 216.457 20.4213 216.025 20.656C215.593 20.8853 215.092 21 214.521 21ZM219.85 21.08C219.477 21.08 219.146 21 218.858 20.84C218.576 20.68 218.357 20.456 218.202 20.168C218.048 19.88 217.97 19.544 217.97 19.16C217.97 18.7707 218.048 18.432 218.202 18.144C218.362 17.856 218.586 17.6347 218.874 17.48C219.162 17.32 219.501 17.24 219.89 17.24C220.28 17.24 220.61 17.3147 220.882 17.464C221.154 17.6133 221.362 17.8293 221.506 18.112C221.656 18.3893 221.73 18.7253 221.73 19.12C221.73 19.1627 221.728 19.208 221.722 19.256C221.722 19.304 221.72 19.3387 221.714 19.36H218.482V18.768H220.978L220.714 19.136C220.73 19.104 220.746 19.0613 220.762 19.008C220.784 18.9493 220.794 18.9013 220.794 18.864C220.794 18.6667 220.754 18.496 220.674 18.352C220.6 18.208 220.493 18.096 220.354 18.016C220.221 17.936 220.064 17.896 219.882 17.896C219.664 17.896 219.477 17.944 219.322 18.04C219.168 18.136 219.05 18.2747 218.97 18.456C218.89 18.6373 218.848 18.8613 218.842 19.128C218.842 19.3947 218.882 19.6213 218.962 19.808C219.042 19.9893 219.16 20.128 219.314 20.224C219.474 20.32 219.666 20.368 219.89 20.368C220.125 20.368 220.33 20.32 220.506 20.224C220.682 20.128 220.829 19.9813 220.946 19.784L221.69 20.088C221.498 20.4187 221.25 20.6667 220.946 20.832C220.642 20.9973 220.277 21.08 219.85 21.08ZM222.043 17.32H224.131V18.08H222.043V17.32ZM222.659 16.04H223.515V21H222.659V16.04ZM225.271 19.856C225.271 19.9787 225.3 20.0853 225.359 20.176C225.418 20.2613 225.498 20.3253 225.599 20.368C225.706 20.4107 225.826 20.432 225.959 20.432C226.13 20.432 226.284 20.3973 226.423 20.328C226.567 20.2587 226.682 20.1573 226.767 20.024C226.858 19.8853 226.903 19.7253 226.903 19.544L227.031 20.024C227.031 20.2587 226.962 20.456 226.823 20.616C226.69 20.7707 226.519 20.888 226.311 20.968C226.108 21.0427 225.9 21.08 225.687 21.08C225.458 21.08 225.244 21.0347 225.047 20.944C224.85 20.8533 224.692 20.72 224.575 20.544C224.458 20.368 224.399 20.1547 224.399 19.904C224.399 19.5467 224.524 19.264 224.775 19.056C225.026 18.8427 225.38 18.736 225.839 18.736C226.084 18.736 226.295 18.7627 226.471 18.816C226.652 18.8693 226.802 18.9333 226.919 19.008C227.036 19.0773 227.119 19.1413 227.167 19.2V19.64C227.002 19.5227 226.826 19.4373 226.639 19.384C226.452 19.3307 226.255 19.304 226.047 19.304C225.866 19.304 225.719 19.328 225.607 19.376C225.495 19.4187 225.41 19.48 225.351 19.56C225.298 19.64 225.271 19.7387 225.271 19.856ZM224.999 18.28L224.647 17.672C224.812 17.5707 225.026 17.472 225.287 17.376C225.554 17.28 225.858 17.232 226.199 17.232C226.503 17.232 226.77 17.2773 226.999 17.368C227.234 17.4587 227.418 17.5893 227.551 17.76C227.684 17.9253 227.751 18.1307 227.751 18.376V21H226.903V18.544C226.903 18.4267 226.882 18.3307 226.839 18.256C226.802 18.1813 226.748 18.12 226.679 18.072C226.61 18.024 226.527 17.9893 226.431 17.968C226.335 17.9467 226.231 17.936 226.119 17.936C225.948 17.936 225.786 17.9573 225.631 18C225.482 18.0373 225.351 18.0853 225.239 18.144C225.132 18.1973 225.052 18.2427 224.999 18.28ZM228.726 15.856C228.726 15.7067 228.779 15.5813 228.886 15.48C228.998 15.3787 229.126 15.328 229.27 15.328C229.425 15.328 229.553 15.3787 229.654 15.48C229.761 15.5813 229.814 15.7067 229.814 15.856C229.814 16 229.761 16.1253 229.654 16.232C229.553 16.3333 229.425 16.384 229.27 16.384C229.126 16.384 228.998 16.3333 228.886 16.232C228.779 16.1253 228.726 16 228.726 15.856ZM228.846 17.32H229.694V21H228.846V17.32ZM230.883 14.76H231.747V21H230.883V14.76ZM233.02 19.792C233.137 19.92 233.255 20.032 233.372 20.128C233.495 20.2187 233.617 20.288 233.74 20.336C233.863 20.3787 233.985 20.4 234.108 20.4C234.263 20.4 234.383 20.3653 234.468 20.296C234.559 20.2267 234.604 20.1307 234.604 20.008C234.604 19.9013 234.569 19.8107 234.5 19.736C234.431 19.656 234.335 19.5893 234.212 19.536C234.089 19.4773 233.945 19.4187 233.78 19.36C233.615 19.296 233.449 19.2213 233.284 19.136C233.124 19.0453 232.991 18.928 232.884 18.784C232.783 18.64 232.732 18.4587 232.732 18.24C232.732 18.016 232.788 17.8293 232.9 17.68C233.017 17.5307 233.172 17.4213 233.364 17.352C233.561 17.2773 233.772 17.24 233.996 17.24C234.199 17.24 234.388 17.2693 234.564 17.328C234.745 17.3867 234.908 17.464 235.052 17.56C235.196 17.656 235.319 17.7653 235.42 17.888L234.94 18.4C234.817 18.256 234.671 18.1387 234.5 18.048C234.329 17.9573 234.153 17.912 233.972 17.912C233.849 17.912 233.748 17.9387 233.668 17.992C233.588 18.0453 233.548 18.1227 233.548 18.224C233.548 18.3093 233.583 18.3867 233.652 18.456C233.727 18.52 233.823 18.5787 233.94 18.632C234.063 18.6853 234.199 18.7413 234.348 18.8C234.551 18.88 234.737 18.968 234.908 19.064C235.079 19.16 235.215 19.2773 235.316 19.416C235.423 19.5547 235.476 19.736 235.476 19.96C235.476 20.3067 235.356 20.5867 235.116 20.8C234.881 21.008 234.561 21.112 234.156 21.112C233.905 21.112 233.673 21.0747 233.46 21C233.252 20.92 233.068 20.8187 232.908 20.696C232.753 20.568 232.623 20.4347 232.516 20.296L233.02 19.792Z" fill="#A2B6F2"/>
<path d="M33.3965 15.4H34.3565V21H33.3965V15.4ZM35.2045 21H33.9805V20.112H35.1805C35.4579 20.112 35.7139 20.072 35.9485 19.992C36.1832 19.912 36.3859 19.792 36.5565 19.632C36.7325 19.472 36.8685 19.272 36.9645 19.032C37.0659 18.792 37.1165 18.5147 37.1165 18.2C37.1165 17.8853 37.0659 17.608 36.9645 17.368C36.8685 17.128 36.7325 16.928 36.5565 16.768C36.3859 16.608 36.1832 16.488 35.9485 16.408C35.7139 16.328 35.4579 16.288 35.1805 16.288H33.9805V15.4H35.2045C35.7752 15.4 36.2765 15.5173 36.7085 15.752C37.1405 15.9813 37.4765 16.3067 37.7165 16.728C37.9619 17.144 38.0845 17.6347 38.0845 18.2C38.0845 18.7653 37.9619 19.2587 37.7165 19.68C37.4765 20.096 37.1405 20.4213 36.7085 20.656C36.2765 20.8853 35.7752 21 35.2045 21ZM40.5339 21.08C40.1606 21.08 39.8299 21 39.5419 20.84C39.2592 20.68 39.0406 20.456 38.8859 20.168C38.7312 19.88 38.6539 19.544 38.6539 19.16C38.6539 18.7707 38.7312 18.432 38.8859 18.144C39.0459 17.856 39.2699 17.6347 39.5579 17.48C39.8459 17.32 40.1846 17.24 40.5739 17.24C40.9632 17.24 41.2939 17.3147 41.5659 17.464C41.8379 17.6133 42.0459 17.8293 42.1899 18.112C42.3392 18.3893 42.4139 18.7253 42.4139 19.12C42.4139 19.1627 42.4112 19.208 42.4059 19.256C42.4059 19.304 42.4032 19.3387 42.3979 19.36H39.1659V18.768H41.6619L41.3979 19.136C41.4139 19.104 41.4299 19.0613 41.4459 19.008C41.4672 18.9493 41.4779 18.9013 41.4779 18.864C41.4779 18.6667 41.4379 18.496 41.3579 18.352C41.2832 18.208 41.1766 18.096 41.0379 18.016C40.9046 17.936 40.7472 17.896 40.5659 17.896C40.3472 17.896 40.1606 17.944 40.0059 18.04C39.8512 18.136 39.7339 18.2747 39.6539 18.456C39.5739 18.6373 39.5312 18.8613 39.5259 19.128C39.5259 19.3947 39.5659 19.6213 39.6459 19.808C39.7259 19.9893 39.8432 20.128 39.9979 20.224C40.1579 20.32 40.3499 20.368 40.5739 20.368C40.8086 20.368 41.0139 20.32 41.1899 20.224C41.3659 20.128 41.5126 19.9813 41.6299 19.784L42.3739 20.088C42.1819 20.4187 41.9339 20.6667 41.6299 20.832C41.3259 20.9973 40.9606 21.08 40.5339 21.08ZM42.7266 17.32H44.8146V18.08H42.7266V17.32ZM43.3426 16.04H44.1986V21H43.3426V16.04ZM45.9545 19.856C45.9545 19.9787 45.9838 20.0853 46.0425 20.176C46.1011 20.2613 46.1811 20.3253 46.2825 20.368C46.3891 20.4107 46.5091 20.432 46.6425 20.432C46.8131 20.432 46.9678 20.3973 47.1065 20.328C47.2505 20.2587 47.3651 20.1573 47.4505 20.024C47.5411 19.8853 47.5865 19.7253 47.5865 19.544L47.7145 20.024C47.7145 20.2587 47.6451 20.456 47.5065 20.616C47.3731 20.7707 47.2025 20.888 46.9945 20.968C46.7918 21.0427 46.5838 21.08 46.3705 21.08C46.1411 21.08 45.9278 21.0347 45.7305 20.944C45.5331 20.8533 45.3758 20.72 45.2585 20.544C45.1411 20.368 45.0825 20.1547 45.0825 19.904C45.0825 19.5467 45.2078 19.264 45.4585 19.056C45.7091 18.8427 46.0638 18.736 46.5225 18.736C46.7678 18.736 46.9785 18.7627 47.1545 18.816C47.3358 18.8693 47.4851 18.9333 47.6025 19.008C47.7198 19.0773 47.8025 19.1413 47.8505 19.2V19.64C47.6851 19.5227 47.5091 19.4373 47.3225 19.384C47.1358 19.3307 46.9385 19.304 46.7305 19.304C46.5491 19.304 46.4025 19.328 46.2905 19.376C46.1785 19.4187 46.0931 19.48 46.0345 19.56C45.9811 19.64 45.9545 19.7387 45.9545 19.856ZM45.6825 18.28L45.3305 17.672C45.4958 17.5707 45.7091 17.472 45.9705 17.376C46.2371 17.28 46.5411 17.232 46.8825 17.232C47.1865 17.232 47.4531 17.2773 47.6825 17.368C47.9171 17.4587 48.1011 17.5893 48.2345 17.76C48.3678 17.9253 48.4345 18.1307 48.4345 18.376V21H47.5865V18.544C47.5865 18.4267 47.5651 18.3307 47.5225 18.256C47.4851 18.1813 47.4318 18.12 47.3625 18.072C47.2931 18.024 47.2105 17.9893 47.1145 17.968C47.0185 17.9467 46.9145 17.936 46.8025 17.936C46.6318 17.936 46.4691 17.9573 46.3145 18C46.1651 18.0373 46.0345 18.0853 45.9225 18.144C45.8158 18.1973 45.7358 18.2427 45.6825 18.28ZM49.4097 15.856C49.4097 15.7067 49.4631 15.5813 49.5697 15.48C49.6817 15.3787 49.8097 15.328 49.9537 15.328C50.1084 15.328 50.2364 15.3787 50.3377 15.48C50.4444 15.5813 50.4977 15.7067 50.4977 15.856C50.4977 16 50.4444 16.1253 50.3377 16.232C50.2364 16.3333 50.1084 16.384 49.9537 16.384C49.8097 16.384 49.6817 16.3333 49.5697 16.232C49.4631 16.1253 49.4097 16 49.4097 15.856ZM49.5297 17.32H50.3777V21H49.5297V17.32ZM51.5667 14.76H52.4307V21H51.5667V14.76ZM53.7035 19.792C53.8208 19.92 53.9381 20.032 54.0555 20.128C54.1781 20.2187 54.3008 20.288 54.4235 20.336C54.5461 20.3787 54.6688 20.4 54.7915 20.4C54.9461 20.4 55.0661 20.3653 55.1515 20.296C55.2421 20.2267 55.2875 20.1307 55.2875 20.008C55.2875 19.9013 55.2528 19.8107 55.1835 19.736C55.1141 19.656 55.0181 19.5893 54.8955 19.536C54.7728 19.4773 54.6288 19.4187 54.4635 19.36C54.2981 19.296 54.1328 19.2213 53.9675 19.136C53.8075 19.0453 53.6741 18.928 53.5675 18.784C53.4661 18.64 53.4155 18.4587 53.4155 18.24C53.4155 18.016 53.4715 17.8293 53.5835 17.68C53.7008 17.5307 53.8555 17.4213 54.0475 17.352C54.2448 17.2773 54.4555 17.24 54.6795 17.24C54.8821 17.24 55.0715 17.2693 55.2475 17.328C55.4288 17.3867 55.5915 17.464 55.7355 17.56C55.8795 17.656 56.0021 17.7653 56.1035 17.888L55.6235 18.4C55.5008 18.256 55.3541 18.1387 55.1835 18.048C55.0128 17.9573 54.8368 17.912 54.6555 17.912C54.5328 17.912 54.4315 17.9387 54.3515 17.992C54.2715 18.0453 54.2315 18.1227 54.2315 18.224C54.2315 18.3093 54.2661 18.3867 54.3355 18.456C54.4101 18.52 54.5061 18.5787 54.6235 18.632C54.7461 18.6853 54.8821 18.7413 55.0315 18.8C55.2341 18.88 55.4208 18.968 55.5915 19.064C55.7621 19.16 55.8981 19.2773 55.9995 19.416C56.1061 19.5547 56.1595 19.736 56.1595 19.96C56.1595 20.3067 56.0395 20.5867 55.7995 20.8C55.5648 21.008 55.2448 21.112 54.8395 21.112C54.5888 21.112 54.3568 21.0747 54.1435 21C53.9355 20.92 53.7515 20.8187 53.5915 20.696C53.4368 20.568 53.3061 20.4347 53.1995 20.296L53.7035 19.792ZM59.3565 15.4H60.3005V19.12C60.3005 19.4667 60.3912 19.7467 60.5725 19.96C60.7592 20.168 61.0339 20.272 61.3965 20.272C61.7539 20.272 62.0259 20.168 62.2125 19.96C62.3992 19.7467 62.4925 19.4667 62.4925 19.12V15.4H63.4365V19.16C63.4365 19.4693 63.3859 19.7467 63.2845 19.992C63.1885 20.232 63.0499 20.4373 62.8685 20.608C62.6872 20.7787 62.4712 20.9093 62.2205 21C61.9699 21.0907 61.6952 21.136 61.3965 21.136C61.0979 21.136 60.8232 21.0907 60.5725 21C60.3219 20.9093 60.1032 20.7787 59.9165 20.608C59.7352 20.4373 59.5965 20.232 59.5005 19.992C59.4045 19.7467 59.3565 19.4693 59.3565 19.16V15.4ZM65.4145 22.76H64.5425V17.32H65.4145V22.76ZM68.4625 19.16C68.4625 19.5653 68.3799 19.9147 68.2145 20.208C68.0492 20.496 67.8305 20.7173 67.5585 20.872C67.2865 21.0213 66.9905 21.096 66.6705 21.096C66.3559 21.096 66.0812 21.0187 65.8465 20.864C65.6172 20.704 65.4385 20.48 65.3105 20.192C65.1879 19.8987 65.1265 19.5547 65.1265 19.16C65.1265 18.76 65.1879 18.416 65.3105 18.128C65.4385 17.84 65.6172 17.6187 65.8465 17.464C66.0812 17.304 66.3559 17.224 66.6705 17.224C66.9905 17.224 67.2865 17.3013 67.5585 17.456C67.8305 17.6053 68.0492 17.824 68.2145 18.112C68.3799 18.4 68.4625 18.7493 68.4625 19.16ZM67.5665 19.16C67.5665 18.9147 67.5159 18.7067 67.4145 18.536C67.3132 18.36 67.1772 18.2293 67.0065 18.144C66.8412 18.0533 66.6572 18.008 66.4545 18.008C66.2892 18.008 66.1265 18.0533 65.9665 18.144C65.8065 18.2293 65.6732 18.3573 65.5665 18.528C65.4652 18.6987 65.4145 18.9093 65.4145 19.16C65.4145 19.4107 65.4652 19.6213 65.5665 19.792C65.6732 19.9627 65.8065 20.0933 65.9665 20.184C66.1265 20.2693 66.2892 20.312 66.4545 20.312C66.6572 20.312 66.8412 20.2693 67.0065 20.184C67.1772 20.0933 67.3132 19.9627 67.4145 19.792C67.5159 19.616 67.5665 19.4053 67.5665 19.16ZM72.0535 14.76H72.9255V21H72.0535V14.76ZM69.0055 19.16C69.0055 18.7547 69.0881 18.4107 69.2535 18.128C69.4188 17.84 69.6375 17.6213 69.9095 17.472C70.1868 17.3173 70.4828 17.24 70.7975 17.24C71.1068 17.24 71.3761 17.3173 71.6055 17.472C71.8401 17.6267 72.0241 17.848 72.1575 18.136C72.2961 18.4187 72.3655 18.76 72.3655 19.16C72.3655 19.5547 72.2961 19.896 72.1575 20.184C72.0241 20.472 71.8401 20.6933 71.6055 20.848C71.3761 21.0027 71.1068 21.08 70.7975 21.08C70.4828 21.08 70.1868 21.0053 69.9095 20.856C69.6375 20.7013 69.4188 20.48 69.2535 20.192C69.0881 19.904 69.0055 19.56 69.0055 19.16ZM69.9015 19.16C69.9015 19.4053 69.9521 19.616 70.0535 19.792C70.1548 19.968 70.2881 20.1013 70.4535 20.192C70.6241 20.2827 70.8081 20.328 71.0055 20.328C71.1708 20.328 71.3335 20.2827 71.4935 20.192C71.6588 20.1013 71.7921 19.9707 71.8935 19.8C72.0001 19.624 72.0535 19.4107 72.0535 19.16C72.0535 18.9093 72.0001 18.6987 71.8935 18.528C71.7921 18.352 71.6588 18.2187 71.4935 18.128C71.3335 18.0373 71.1708 17.992 71.0055 17.992C70.8081 17.992 70.6241 18.0373 70.4535 18.128C70.2881 18.2187 70.1548 18.352 70.0535 18.528C69.9521 18.704 69.9015 18.9147 69.9015 19.16ZM74.5404 19.856C74.5404 19.9787 74.5697 20.0853 74.6284 20.176C74.6871 20.2613 74.7671 20.3253 74.8684 20.368C74.9751 20.4107 75.0951 20.432 75.2284 20.432C75.3991 20.432 75.5537 20.3973 75.6924 20.328C75.8364 20.2587 75.9511 20.1573 76.0364 20.024C76.1271 19.8853 76.1724 19.7253 76.1724 19.544L76.3004 20.024C76.3004 20.2587 76.2311 20.456 76.0924 20.616C75.9591 20.7707 75.7884 20.888 75.5804 20.968C75.3777 21.0427 75.1697 21.08 74.9564 21.08C74.7271 21.08 74.5137 21.0347 74.3164 20.944C74.1191 20.8533 73.9617 20.72 73.8444 20.544C73.7271 20.368 73.6684 20.1547 73.6684 19.904C73.6684 19.5467 73.7937 19.264 74.0444 19.056C74.2951 18.8427 74.6497 18.736 75.1084 18.736C75.3537 18.736 75.5644 18.7627 75.7404 18.816C75.9217 18.8693 76.0711 18.9333 76.1884 19.008C76.3057 19.0773 76.3884 19.1413 76.4364 19.2V19.64C76.2711 19.5227 76.0951 19.4373 75.9084 19.384C75.7217 19.3307 75.5244 19.304 75.3164 19.304C75.1351 19.304 74.9884 19.328 74.8764 19.376C74.7644 19.4187 74.6791 19.48 74.6204 19.56C74.5671 19.64 74.5404 19.7387 74.5404 19.856ZM74.2684 18.28L73.9164 17.672C74.0817 17.5707 74.2951 17.472 74.5564 17.376C74.8231 17.28 75.1271 17.232 75.4684 17.232C75.7724 17.232 76.0391 17.2773 76.2684 17.368C76.5031 17.4587 76.6871 17.5893 76.8204 17.76C76.9537 17.9253 77.0204 18.1307 77.0204 18.376V21H76.1724V18.544C76.1724 18.4267 76.1511 18.3307 76.1084 18.256C76.0711 18.1813 76.0177 18.12 75.9484 18.072C75.8791 18.024 75.7964 17.9893 75.7004 17.968C75.6044 17.9467 75.5004 17.936 75.3884 17.936C75.2177 17.936 75.0551 17.9573 74.9004 18C74.7511 18.0373 74.6204 18.0853 74.5084 18.144C74.4017 18.1973 74.3217 18.2427 74.2684 18.28ZM77.5157 17.32H79.6037V18.08H77.5157V17.32ZM78.1317 16.04H78.9877V21H78.1317V16.04ZM81.7995 21.08C81.4262 21.08 81.0955 21 80.8075 20.84C80.5249 20.68 80.3062 20.456 80.1515 20.168C79.9969 19.88 79.9195 19.544 79.9195 19.16C79.9195 18.7707 79.9969 18.432 80.1515 18.144C80.3115 17.856 80.5355 17.6347 80.8235 17.48C81.1115 17.32 81.4502 17.24 81.8395 17.24C82.2289 17.24 82.5595 17.3147 82.8315 17.464C83.1035 17.6133 83.3115 17.8293 83.4555 18.112C83.6049 18.3893 83.6795 18.7253 83.6795 19.12C83.6795 19.1627 83.6769 19.208 83.6715 19.256C83.6715 19.304 83.6689 19.3387 83.6635 19.36H80.4315V18.768H82.9275L82.6635 19.136C82.6795 19.104 82.6955 19.0613 82.7115 19.008C82.7329 18.9493 82.7435 18.9013 82.7435 18.864C82.7435 18.6667 82.7035 18.496 82.6235 18.352C82.5489 18.208 82.4422 18.096 82.3035 18.016C82.1702 17.936 82.0129 17.896 81.8315 17.896C81.6129 17.896 81.4262 17.944 81.2715 18.04C81.1169 18.136 80.9995 18.2747 80.9195 18.456C80.8395 18.6373 80.7969 18.8613 80.7915 19.128C80.7915 19.3947 80.8315 19.6213 80.9115 19.808C80.9915 19.9893 81.1089 20.128 81.2635 20.224C81.4235 20.32 81.6155 20.368 81.8395 20.368C82.0742 20.368 82.2795 20.32 82.4555 20.224C82.6315 20.128 82.7782 19.9813 82.8955 19.784L83.6395 20.088C83.4475 20.4187 83.1995 20.6667 82.8955 20.832C82.5915 20.9973 82.2262 21.08 81.7995 21.08ZM87.2722 14.76H88.1442V21H87.2722V14.76ZM84.2242 19.16C84.2242 18.7547 84.3069 18.4107 84.4722 18.128C84.6376 17.84 84.8562 17.6213 85.1282 17.472C85.4056 17.3173 85.7016 17.24 86.0162 17.24C86.3256 17.24 86.5949 17.3173 86.8242 17.472C87.0589 17.6267 87.2429 17.848 87.3762 18.136C87.5149 18.4187 87.5842 18.76 87.5842 19.16C87.5842 19.5547 87.5149 19.896 87.3762 20.184C87.2429 20.472 87.0589 20.6933 86.8242 20.848C86.5949 21.0027 86.3256 21.08 86.0162 21.08C85.7016 21.08 85.4056 21.0053 85.1282 20.856C84.8562 20.7013 84.6376 20.48 84.4722 20.192C84.3069 19.904 84.2242 19.56 84.2242 19.16ZM85.1202 19.16C85.1202 19.4053 85.1709 19.616 85.2722 19.792C85.3736 19.968 85.5069 20.1013 85.6722 20.192C85.8429 20.2827 86.0269 20.328 86.2242 20.328C86.3896 20.328 86.5522 20.2827 86.7122 20.192C86.8776 20.1013 87.0109 19.9707 87.1122 19.8C87.2189 19.624 87.2722 19.4107 87.2722 19.16C87.2722 18.9093 87.2189 18.6987 87.1122 18.528C87.0109 18.352 86.8776 18.2187 86.7122 18.128C86.5522 18.0373 86.3896 17.992 86.2242 17.992C86.0269 17.992 85.8429 18.0373 85.6722 18.128C85.5069 18.2187 85.3736 18.352 85.2722 18.528C85.1709 18.704 85.1202 18.9147 85.1202 19.16Z" fill="#FEAFBD"/>
<defs>
<filter id="filter0_i_83_17" x="0" y="1" width="254" height="40.1333" filterUnits="userSpaceOnUse" color-interpolation-filters="sRGB">
<feFlood flood-opacity="0" result="BackgroundImageFix"/>
<feBlend mode="normal" in="SourceGraphic" in2="BackgroundImageFix" result="shape"/>
<feColorMatrix in="SourceAlpha" type="matrix" values="0 0 0 0 0 0 0 0 0 0 0 0 0 0 0 0 0 0 127 0" result="hardAlpha"/>
<feOffset/>
<feGaussianBlur stdDeviation="2"/>
<feComposite in2="hardAlpha" operator="arithmetic" k2="-1" k3="1"/>
<feColorMatrix type="matrix" values="0 0 0 0 0 0 0 0 0 0 0 0 0 0 0 0 0 0 0.25 0"/>
<feBlend mode="normal" in2="shape" result="effect1_innerShadow_83_17"/>
</filter>
<filter id="filter1_d_83_17" x="106" y="0" width="41.4399" height="41.4445" filterUnits="userSpaceOnUse" color-interpolation-filters="sRGB">
<feFlood flood-opacity="0" result="BackgroundImageFix"/>
<feColorMatrix in="SourceAlpha" type="matrix" values="0 0 0 0 0 0 0 0 0 0 0 0 0 0 0 0 0 0 127 0" result="hardAlpha"/>
<feOffset/>
<feGaussianBlur stdDeviation="2"/>
<feComposite in2="hardAlpha" operator="out"/>
<feColorMatrix type="matrix" values="0 0 0 0 0 0 0 0 0 0 0 0 0 0 0 0 0 0 0.25 0"/>
<feBlend mode="normal" in2="BackgroundImageFix" result="effect1_dropShadow_83_17"/>
<feBlend mode="normal" in="SourceGraphic" in2="effect1_dropShadow_83_17" result="shape"/>
</filter>
<filter id="filter2_i_83_17" x="113.344" y="7.34439" width="26.752" height="26.7556" filterUnits="userSpaceOnUse" color-interpolation-filters="sRGB">
<feFlood flood-opacity="0" result="BackgroundImageFix"/>
<feBlend mode="normal" in="SourceGraphic" in2="BackgroundImageFix" result="shape"/>
<feColorMatrix in="SourceAlpha" type="matrix" values="0 0 0 0 0 0 0 0 0 0 0 0 0 0 0 0 0 0 127 0" result="hardAlpha"/>
<feOffset/>
<feGaussianBlur stdDeviation="1"/>
<feComposite in2="hardAlpha" operator="arithmetic" k2="-1" k3="1"/>
<feColorMatrix type="matrix" values="0 0 0 0 0 0 0 0 0 0 0 0 0 0 0 0 0 0 0.25 0"/>
<feBlend mode="normal" in2="shape" result="effect1_innerShadow_83_17"/>
</filter>
<linearGradient id="paint0_linear_83_17" x1="126.5" y1="-0.49998" x2="127.5" y2="-0.49998" gradientUnits="userSpaceOnUse">
<stop stop-color="#C64453"/>
<stop offset="1" stop-color="#5E76BF"/>
</linearGradient>
</defs>
</svg>
