<svg width="84" height="34" viewBox="0 0 84 34" fill="none" xmlns="http://www.w3.org/2000/svg">
<rect x="1" y="1" width="82" height="32" rx="11" fill="#C64453" stroke="#DA6C78" stroke-width="2" stroke-dasharray="2 2"/>
<circle cx="20" cy="17" r="9" fill="#C64453" stroke="#DA6C78" stroke-width="2" stroke-dasharray="2 2"/>
<path d="M51.0639 14.332L50.6596 15.7207H42.5033L42.9076 14.332H51.0639ZM47.4076 24L42.7582 18.5684L42.7494 17.4785H44.8939C45.515 17.4785 46.0277 17.376 46.432 17.1709C46.8422 16.96 47.1498 16.6758 47.3549 16.3184C47.56 15.9609 47.6625 15.5596 47.6625 15.1143C47.6625 14.6162 47.5658 14.1797 47.3725 13.8047C47.1791 13.4238 46.8744 13.1279 46.4584 12.917C46.0482 12.7002 45.5092 12.5918 44.8412 12.5918H42.5209L42.934 11.2031H44.8412C45.8607 11.2031 46.7016 11.3584 47.3637 11.6689C48.0316 11.9736 48.5297 12.4189 48.8578 13.0049C49.1859 13.5908 49.35 14.2998 49.35 15.1318C49.35 15.8467 49.2123 16.4883 48.9369 17.0566C48.6674 17.6191 48.2191 18.0615 47.5922 18.3838C46.9711 18.7061 46.1332 18.8672 45.0785 18.8672L49.4027 23.8945V24H47.4076ZM51.0639 11.2031L50.6596 12.5918H44.0854L44.4896 11.2031H51.0639ZM61.2803 14.332L60.876 15.7207H52.7197L53.124 14.332H61.2803ZM57.624 24L52.9746 18.5684L52.9658 17.4785H55.1104C55.7314 17.4785 56.2441 17.376 56.6484 17.1709C57.0586 16.96 57.3662 16.6758 57.5713 16.3184C57.7764 15.9609 57.8789 15.5596 57.8789 15.1143C57.8789 14.6162 57.7822 14.1797 57.5889 13.8047C57.3955 13.4238 57.0908 13.1279 56.6748 12.917C56.2646 12.7002 55.7256 12.5918 55.0576 12.5918H52.7373L53.1504 11.2031H55.0576C56.0771 11.2031 56.918 11.3584 57.5801 11.6689C58.248 11.9736 58.7461 12.4189 59.0742 13.0049C59.4023 13.5908 59.5664 14.2998 59.5664 15.1318C59.5664 15.8467 59.4287 16.4883 59.1533 17.0566C58.8838 17.6191 58.4355 18.0615 57.8086 18.3838C57.1875 18.7061 56.3496 18.8672 55.2949 18.8672L59.6191 23.8945V24H57.624ZM61.2803 11.2031L60.876 12.5918H54.3018L54.7061 11.2031H61.2803ZM71.4967 14.332L71.0924 15.7207H62.9361L63.3404 14.332H71.4967ZM67.8404 24L63.191 18.5684L63.1822 17.4785H65.3268C65.9479 17.4785 66.4605 17.376 66.8648 17.1709C67.275 16.96 67.5826 16.6758 67.7877 16.3184C67.9928 15.9609 68.0953 15.5596 68.0953 15.1143C68.0953 14.6162 67.9986 14.1797 67.8053 13.8047C67.6119 13.4238 67.3072 13.1279 66.8912 12.917C66.4811 12.7002 65.942 12.5918 65.274 12.5918H62.9537L63.3668 11.2031H65.274C66.2936 11.2031 67.1344 11.3584 67.7965 11.6689C68.4645 11.9736 68.9625 12.4189 69.2906 13.0049C69.6187 13.5908 69.7828 14.2998 69.7828 15.1318C69.7828 15.8467 69.6451 16.4883 69.3697 17.0566C69.1002 17.6191 68.652 18.0615 68.025 18.3838C67.4039 18.7061 66.566 18.8672 65.5113 18.8672L69.8355 23.8945V24H67.8404ZM71.4967 11.2031L71.0924 12.5918H64.5182L64.9225 11.2031H71.4967Z" fill="#DA6C78"/>
</svg>
