<svg width="340" height="140" viewBox="0 0 340 140" fill="none" xmlns="http://www.w3.org/2000/svg">
<g clip-path="url(#clip0_113_2)">
<rect width="340" height="140" fill="#C64453"/>
<g filter="url(#filter0_i_113_2)">
<rect x="144" y="20" width="53" height="27" rx="11" fill="#F2F2F2"/>
</g>
<rect x="143" y="19" width="55" height="29" rx="12" stroke="#2B4450" stroke-width="2"/>
<g filter="url(#filter1_i_113_2)">
<rect x="32" y="20" width="77" height="27" rx="11" fill="#F2F2F2"/>
</g>
<rect x="31" y="19" width="79" height="29" rx="12" stroke="#2B4450" stroke-width="2"/>
<g filter="url(#filter2_i_113_2)">
<rect x="28" y="21" width="25" height="25" rx="12.5" fill="#DA6C78"/>
</g>
<rect x="26.5" y="19.5" width="28" height="28" rx="14" stroke="#2B4450" stroke-width="3"/>
<g filter="url(#filter3_i_113_2)">
<rect x="144" y="56" width="53" height="27" rx="11" fill="#F2F2F2"/>
</g>
<rect x="143" y="55" width="55" height="29" rx="12" stroke="#2B4450" stroke-width="2"/>
<g filter="url(#filter4_i_113_2)">
<rect x="144" y="93" width="53" height="27" rx="11" fill="#F2F2F2"/>
</g>
<rect x="143" y="92" width="55" height="29" rx="12" stroke="#2B4450" stroke-width="2"/>
<g filter="url(#filter5_i_113_2)">
<rect x="231" y="20" width="81" height="27" rx="11" fill="#F2F2F2"/>
</g>
<rect x="230" y="19" width="83" height="29" rx="12" stroke="#2B4450" stroke-width="2"/>
<g filter="url(#filter6_i_113_2)">
<rect x="231" y="56" width="81" height="27" rx="11" fill="#F2F2F2"/>
</g>
<rect x="230" y="55" width="83" height="29" rx="12" stroke="#2B4450" stroke-width="2"/>
<g filter="url(#filter7_i_113_2)">
<rect x="231" y="93" width="81" height="27" rx="11" fill="#F2F2F2"/>
</g>
<rect x="230" y="92" width="83" height="29" rx="12" stroke="#2B4450" stroke-width="2"/>
<path d="M164.706 31.5146L164.371 32.7246H157.973L158.308 31.5146H164.706ZM161.61 39L158.171 34.9463L158.164 33.9277H159.798C160.222 33.9277 160.571 33.8525 160.844 33.7021C161.122 33.5472 161.329 33.3398 161.466 33.0801C161.603 32.8158 161.671 32.5218 161.671 32.1982C161.671 31.8473 161.607 31.5374 161.48 31.2686C161.352 30.9997 161.149 30.79 160.871 30.6396C160.593 30.4893 160.226 30.4141 159.771 30.4141H157.98L158.349 29.0469H159.771C160.577 29.0469 161.247 29.1676 161.78 29.4092C162.314 29.6507 162.712 30.0016 162.977 30.4619C163.246 30.9222 163.38 31.4782 163.38 32.1299C163.38 32.6995 163.282 33.2031 163.086 33.6406C162.89 34.0736 162.573 34.4245 162.136 34.6934C161.698 34.9577 161.117 35.1217 160.393 35.1855L163.537 38.9111V39H161.61ZM164.713 29.0469L164.371 30.2568H159.142L159.477 29.0469H164.713ZM173.309 35.4521V36.7646H166.131L166.076 35.7734L170.369 29.0469H171.688L170.26 31.4941L167.792 35.4521H173.309ZM172.064 29.0469V39H170.417V29.0469H172.064ZM181.596 33.1895V34.8164C181.596 35.5957 181.519 36.2611 181.364 36.8125C181.214 37.3594 180.995 37.8037 180.708 38.1455C180.421 38.4873 180.077 38.738 179.676 38.8975C179.279 39.057 178.835 39.1367 178.343 39.1367C177.951 39.1367 177.586 39.0866 177.249 38.9863C176.916 38.8861 176.615 38.7288 176.346 38.5146C176.078 38.3005 175.847 38.0247 175.656 37.6875C175.469 37.3457 175.323 36.9378 175.219 36.4639C175.118 35.9899 175.068 35.4408 175.068 34.8164V33.1895C175.068 32.4056 175.146 31.7448 175.301 31.207C175.456 30.6647 175.677 30.2249 175.964 29.8877C176.251 29.5459 176.593 29.2975 176.989 29.1426C177.39 28.9876 177.837 28.9102 178.329 28.9102C178.725 28.9102 179.09 28.9603 179.423 29.0605C179.76 29.1562 180.061 29.3089 180.325 29.5186C180.594 29.7282 180.822 30.0016 181.009 30.3389C181.2 30.6715 181.346 31.0749 181.446 31.5488C181.546 32.0182 181.596 32.5651 181.596 33.1895ZM179.949 35.0488V32.9434C179.949 32.5469 179.926 32.1982 179.881 31.8975C179.835 31.5921 179.767 31.3346 179.676 31.125C179.589 30.9108 179.48 30.7376 179.347 30.6055C179.215 30.4688 179.065 30.3708 178.896 30.3115C178.728 30.2477 178.539 30.2158 178.329 30.2158C178.074 30.2158 177.846 30.266 177.645 30.3662C177.445 30.4619 177.276 30.6169 177.139 30.8311C177.003 31.0452 176.898 31.3278 176.825 31.6787C176.757 32.0251 176.722 32.4466 176.722 32.9434V35.0488C176.722 35.4499 176.745 35.8031 176.791 36.1084C176.836 36.4137 176.905 36.6758 176.996 36.8945C177.087 37.1087 177.196 37.2865 177.324 37.4277C177.456 37.5645 177.607 37.6647 177.775 37.7285C177.948 37.7923 178.138 37.8242 178.343 37.8242C178.602 37.8242 178.832 37.7741 179.033 37.6738C179.234 37.5736 179.402 37.4141 179.539 37.1953C179.676 36.972 179.778 36.6826 179.846 36.3271C179.915 35.9717 179.949 35.5456 179.949 35.0488Z" fill="#2B4450"/>
<path d="M65.3777 31.5146L65.0428 32.7246H58.6443L58.9793 31.5146H65.3777ZM62.2811 39L58.8426 34.9463L58.8357 33.9277H60.4695C60.8934 33.9277 61.242 33.8525 61.5154 33.7021C61.7934 33.5472 62.0008 33.3398 62.1375 33.0801C62.2742 32.8158 62.3426 32.5218 62.3426 32.1982C62.3426 31.8473 62.2788 31.5374 62.1512 31.2686C62.0236 30.9997 61.8208 30.79 61.5428 30.6396C61.2648 30.4893 60.8979 30.4141 60.4422 30.4141H58.6512L59.0203 29.0469H60.4422C61.2488 29.0469 61.9188 29.1676 62.452 29.4092C62.9852 29.6507 63.3839 30.0016 63.6482 30.4619C63.9171 30.9222 64.0516 31.4782 64.0516 32.1299C64.0516 32.6995 63.9536 33.2031 63.7576 33.6406C63.5617 34.0736 63.2449 34.4245 62.8074 34.6934C62.3699 34.9577 61.7889 35.1217 61.0643 35.1855L64.2088 38.9111V39H62.2811ZM65.3846 29.0469L65.0428 30.2568H59.8133L60.1482 29.0469H65.3846ZM73.9801 35.4521V36.7646H66.8023L66.7477 35.7734L71.0406 29.0469H72.36L70.9313 31.4941L68.4635 35.4521H73.9801ZM72.7359 29.0469V39H71.0885V29.0469H72.7359ZM82.268 33.1895V34.8164C82.268 35.5957 82.1905 36.2611 82.0355 36.8125C81.8852 37.3594 81.6664 37.8037 81.3793 38.1455C81.0922 38.4873 80.7481 38.738 80.3471 38.8975C79.9506 39.057 79.5063 39.1367 79.0141 39.1367C78.6221 39.1367 78.2576 39.0866 77.9203 38.9863C77.5876 38.8861 77.2868 38.7288 77.018 38.5146C76.7491 38.3005 76.5189 38.0247 76.3275 37.6875C76.1407 37.3457 75.9949 36.9378 75.89 36.4639C75.7898 35.9899 75.7396 35.4408 75.7396 34.8164V33.1895C75.7396 32.4056 75.8171 31.7448 75.9721 31.207C76.127 30.6647 76.348 30.2249 76.6352 29.8877C76.9223 29.5459 77.2641 29.2975 77.6605 29.1426C78.0616 28.9876 78.5082 28.9102 79.0004 28.9102C79.3969 28.9102 79.7615 28.9603 80.0941 29.0605C80.4314 29.1562 80.7322 29.3089 80.9965 29.5186C81.2654 29.7282 81.4932 30.0016 81.6801 30.3389C81.8715 30.6715 82.0173 31.0749 82.1176 31.5488C82.2178 32.0182 82.268 32.5651 82.268 33.1895ZM80.6205 35.0488V32.9434C80.6205 32.5469 80.5977 32.1982 80.5521 31.8975C80.5066 31.5921 80.4382 31.3346 80.3471 31.125C80.2605 30.9108 80.1511 30.7376 80.0189 30.6055C79.8868 30.4688 79.7364 30.3708 79.5678 30.3115C79.3992 30.2477 79.21 30.2158 79.0004 30.2158C78.7452 30.2158 78.5173 30.266 78.3168 30.3662C78.1163 30.4619 77.9477 30.6169 77.8109 30.8311C77.6742 31.0452 77.5694 31.3278 77.4965 31.6787C77.4281 32.0251 77.3939 32.4466 77.3939 32.9434V35.0488C77.3939 35.4499 77.4167 35.8031 77.4623 36.1084C77.5079 36.4137 77.5762 36.6758 77.6674 36.8945C77.7585 37.1087 77.8679 37.2865 77.9955 37.4277C78.1277 37.5645 78.2781 37.6647 78.4467 37.7285C78.6199 37.7923 78.809 37.8242 79.0141 37.8242C79.2738 37.8242 79.504 37.7741 79.7045 37.6738C79.905 37.5736 80.0736 37.4141 80.2104 37.1953C80.3471 36.972 80.4496 36.6826 80.518 36.3271C80.5863 35.9717 80.6205 35.5456 80.6205 35.0488ZM86.1672 34.3721L84.8547 34.0508L85.3947 29.0469H90.7609V30.4414H86.7619L86.4885 32.8818C86.6434 32.7907 86.8576 32.7018 87.1311 32.6152C87.4045 32.5241 87.7167 32.4785 88.0676 32.4785C88.537 32.4785 88.9563 32.556 89.3254 32.7109C89.6991 32.8613 90.0158 33.0824 90.2756 33.374C90.5354 33.6611 90.7336 34.012 90.8703 34.4268C91.007 34.8369 91.0754 35.2995 91.0754 35.8145C91.0754 36.2747 91.007 36.7054 90.8703 37.1064C90.7382 37.5075 90.5376 37.8607 90.2688 38.166C89.9999 38.4714 89.6604 38.7106 89.2502 38.8838C88.8446 39.0524 88.3638 39.1367 87.8078 39.1367C87.3931 39.1367 86.9943 39.0775 86.6115 38.959C86.2333 38.8359 85.8938 38.6559 85.593 38.4189C85.2922 38.1774 85.0507 37.8812 84.8684 37.5303C84.6861 37.1748 84.5813 36.7669 84.5539 36.3066H86.1672C86.2082 36.6302 86.2971 36.9059 86.4338 37.1338C86.5751 37.3571 86.7619 37.528 86.9943 37.6465C87.2268 37.765 87.4956 37.8242 87.801 37.8242C88.079 37.8242 88.3182 37.7764 88.5188 37.6807C88.7193 37.5804 88.8856 37.4391 89.0178 37.2568C89.1545 37.07 89.2548 36.8512 89.3186 36.6006C89.3869 36.3499 89.4211 36.0719 89.4211 35.7666C89.4211 35.4749 89.3824 35.2083 89.3049 34.9668C89.232 34.7253 89.1203 34.5156 88.9699 34.3379C88.8241 34.1602 88.6395 34.0234 88.4162 33.9277C88.1929 33.8275 87.9354 33.7773 87.6438 33.7773C87.2518 33.7773 86.951 33.8343 86.7414 33.9482C86.5363 34.0622 86.3449 34.2035 86.1672 34.3721Z" fill="#2B4450"/>
<g filter="url(#filter8_i_113_2)">
<rect x="32" y="56" width="77" height="27" rx="11" fill="#F2F2F2"/>
</g>
<rect x="31" y="55" width="79" height="29" rx="12" stroke="#2B4450" stroke-width="2"/>
<g filter="url(#filter9_i_113_2)">
<rect x="28" y="57" width="25" height="25" rx="12.5" fill="#DA6C78"/>
</g>
<rect x="26.5" y="55.5" width="28" height="28" rx="14" stroke="#2B4450" stroke-width="3"/>
<path d="M65.3777 68.5146L65.0428 69.7246H58.6443L58.9793 68.5146H65.3777ZM62.2811 76L58.8426 71.9463L58.8357 70.9277H60.4695C60.8934 70.9277 61.242 70.8525 61.5154 70.7021C61.7934 70.5472 62.0008 70.3398 62.1375 70.0801C62.2742 69.8158 62.3426 69.5218 62.3426 69.1982C62.3426 68.8473 62.2788 68.5374 62.1512 68.2686C62.0236 67.9997 61.8208 67.79 61.5428 67.6396C61.2648 67.4893 60.8979 67.4141 60.4422 67.4141H58.6512L59.0203 66.0469H60.4422C61.2488 66.0469 61.9188 66.1676 62.452 66.4092C62.9852 66.6507 63.3839 67.0016 63.6482 67.4619C63.9171 67.9222 64.0516 68.4782 64.0516 69.1299C64.0516 69.6995 63.9536 70.2031 63.7576 70.6406C63.5617 71.0736 63.2449 71.4245 62.8074 71.6934C62.3699 71.9577 61.7889 72.1217 61.0643 72.1855L64.2088 75.9111V76H62.2811ZM65.3846 66.0469L65.0428 67.2568H59.8133L60.1482 66.0469H65.3846ZM73.9801 72.4521V73.7646H66.8023L66.7477 72.7734L71.0406 66.0469H72.36L70.9313 68.4941L68.4635 72.4521H73.9801ZM72.7359 66.0469V76H71.0885V66.0469H72.7359ZM82.268 70.1895V71.8164C82.268 72.5957 82.1905 73.2611 82.0355 73.8125C81.8852 74.3594 81.6664 74.8037 81.3793 75.1455C81.0922 75.4873 80.7481 75.738 80.3471 75.8975C79.9506 76.057 79.5063 76.1367 79.0141 76.1367C78.6221 76.1367 78.2576 76.0866 77.9203 75.9863C77.5876 75.8861 77.2868 75.7288 77.018 75.5146C76.7491 75.3005 76.5189 75.0247 76.3275 74.6875C76.1407 74.3457 75.9949 73.9378 75.89 73.4639C75.7898 72.9899 75.7396 72.4408 75.7396 71.8164V70.1895C75.7396 69.4056 75.8171 68.7448 75.9721 68.207C76.127 67.6647 76.348 67.2249 76.6352 66.8877C76.9223 66.5459 77.2641 66.2975 77.6605 66.1426C78.0616 65.9876 78.5082 65.9102 79.0004 65.9102C79.3969 65.9102 79.7615 65.9603 80.0941 66.0605C80.4314 66.1562 80.7322 66.3089 80.9965 66.5186C81.2654 66.7282 81.4932 67.0016 81.6801 67.3389C81.8715 67.6715 82.0173 68.0749 82.1176 68.5488C82.2178 69.0182 82.268 69.5651 82.268 70.1895ZM80.6205 72.0488V69.9434C80.6205 69.5469 80.5977 69.1982 80.5521 68.8975C80.5066 68.5921 80.4382 68.3346 80.3471 68.125C80.2605 67.9108 80.1511 67.7376 80.0189 67.6055C79.8868 67.4688 79.7364 67.3708 79.5678 67.3115C79.3992 67.2477 79.21 67.2158 79.0004 67.2158C78.7452 67.2158 78.5173 67.266 78.3168 67.3662C78.1163 67.4619 77.9477 67.6169 77.8109 67.8311C77.6742 68.0452 77.5694 68.3278 77.4965 68.6787C77.4281 69.0251 77.3939 69.4466 77.3939 69.9434V72.0488C77.3939 72.4499 77.4167 72.8031 77.4623 73.1084C77.5079 73.4137 77.5762 73.6758 77.6674 73.8945C77.7585 74.1087 77.8679 74.2865 77.9955 74.4277C78.1277 74.5645 78.2781 74.6647 78.4467 74.7285C78.6199 74.7923 78.809 74.8242 79.0141 74.8242C79.2738 74.8242 79.504 74.7741 79.7045 74.6738C79.905 74.5736 80.0736 74.4141 80.2104 74.1953C80.3471 73.972 80.4496 73.6826 80.518 73.3271C80.5863 72.9717 80.6205 72.5456 80.6205 72.0488ZM86.1672 71.3721L84.8547 71.0508L85.3947 66.0469H90.7609V67.4414H86.7619L86.4885 69.8818C86.6434 69.7907 86.8576 69.7018 87.1311 69.6152C87.4045 69.5241 87.7167 69.4785 88.0676 69.4785C88.537 69.4785 88.9563 69.556 89.3254 69.7109C89.6991 69.8613 90.0158 70.0824 90.2756 70.374C90.5354 70.6611 90.7336 71.012 90.8703 71.4268C91.007 71.8369 91.0754 72.2995 91.0754 72.8145C91.0754 73.2747 91.007 73.7054 90.8703 74.1064C90.7382 74.5075 90.5376 74.8607 90.2688 75.166C89.9999 75.4714 89.6604 75.7106 89.2502 75.8838C88.8446 76.0524 88.3638 76.1367 87.8078 76.1367C87.3931 76.1367 86.9943 76.0775 86.6115 75.959C86.2333 75.8359 85.8938 75.6559 85.593 75.4189C85.2922 75.1774 85.0507 74.8812 84.8684 74.5303C84.6861 74.1748 84.5813 73.7669 84.5539 73.3066H86.1672C86.2082 73.6302 86.2971 73.9059 86.4338 74.1338C86.5751 74.3571 86.7619 74.528 86.9943 74.6465C87.2268 74.765 87.4956 74.8242 87.801 74.8242C88.079 74.8242 88.3182 74.7764 88.5188 74.6807C88.7193 74.5804 88.8856 74.4391 89.0178 74.2568C89.1545 74.07 89.2548 73.8512 89.3186 73.6006C89.3869 73.3499 89.4211 73.0719 89.4211 72.7666C89.4211 72.4749 89.3824 72.2083 89.3049 71.9668C89.232 71.7253 89.1203 71.5156 88.9699 71.3379C88.8241 71.1602 88.6395 71.0234 88.4162 70.9277C88.1929 70.8275 87.9354 70.7773 87.6438 70.7773C87.2518 70.7773 86.951 70.8343 86.7414 70.9482C86.5363 71.0622 86.3449 71.2035 86.1672 71.3721Z" fill="#2B4450"/>
<g filter="url(#filter10_i_113_2)">
<rect x="33" y="93" width="77" height="27" rx="11" fill="#F2F2F2"/>
</g>
<rect x="32" y="92" width="79" height="29" rx="12" stroke="#2B4450" stroke-width="2"/>
<g filter="url(#filter11_i_113_2)">
<rect x="30" y="94" width="25" height="25" rx="12.5" fill="#DA6C78"/>
</g>
<rect x="28.5" y="92.5" width="28" height="28" rx="14" stroke="#2B4450" stroke-width="3"/>
<path d="M66.8777 104.515L66.5428 105.725H60.1443L60.4793 104.515H66.8777ZM63.7811 112L60.3426 107.946L60.3357 106.928H61.9695C62.3934 106.928 62.742 106.853 63.0154 106.702C63.2934 106.547 63.5008 106.34 63.6375 106.08C63.7742 105.816 63.8426 105.522 63.8426 105.198C63.8426 104.847 63.7788 104.537 63.6512 104.269C63.5236 104 63.3208 103.79 63.0428 103.64C62.7648 103.489 62.3979 103.414 61.9422 103.414H60.1512L60.5203 102.047H61.9422C62.7488 102.047 63.4188 102.168 63.952 102.409C64.4852 102.651 64.8839 103.002 65.1482 103.462C65.4171 103.922 65.5516 104.478 65.5516 105.13C65.5516 105.7 65.4536 106.203 65.2576 106.641C65.0617 107.074 64.7449 107.424 64.3074 107.693C63.8699 107.958 63.2889 108.122 62.5643 108.186L65.7088 111.911V112H63.7811ZM66.8846 102.047L66.5428 103.257H61.3133L61.6482 102.047H66.8846ZM75.4801 108.452V109.765H68.3023L68.2477 108.773L72.5406 102.047H73.86L72.4313 104.494L69.9635 108.452H75.4801ZM74.2359 102.047V112H72.5885V102.047H74.2359ZM83.768 106.189V107.816C83.768 108.596 83.6905 109.261 83.5355 109.812C83.3852 110.359 83.1664 110.804 82.8793 111.146C82.5922 111.487 82.2481 111.738 81.8471 111.897C81.4506 112.057 81.0063 112.137 80.5141 112.137C80.1221 112.137 79.7576 112.087 79.4203 111.986C79.0876 111.886 78.7868 111.729 78.518 111.515C78.2491 111.3 78.0189 111.025 77.8275 110.688C77.6407 110.346 77.4949 109.938 77.39 109.464C77.2898 108.99 77.2396 108.441 77.2396 107.816V106.189C77.2396 105.406 77.3171 104.745 77.4721 104.207C77.627 103.665 77.848 103.225 78.1352 102.888C78.4223 102.546 78.7641 102.298 79.1605 102.143C79.5616 101.988 80.0082 101.91 80.5004 101.91C80.8969 101.91 81.2615 101.96 81.5941 102.061C81.9314 102.156 82.2322 102.309 82.4965 102.519C82.7654 102.728 82.9932 103.002 83.1801 103.339C83.3715 103.672 83.5173 104.075 83.6176 104.549C83.7178 105.018 83.768 105.565 83.768 106.189ZM82.1205 108.049V105.943C82.1205 105.547 82.0977 105.198 82.0521 104.897C82.0066 104.592 81.9382 104.335 81.8471 104.125C81.7605 103.911 81.6511 103.738 81.5189 103.605C81.3868 103.469 81.2364 103.371 81.0678 103.312C80.8992 103.248 80.71 103.216 80.5004 103.216C80.2452 103.216 80.0173 103.266 79.8168 103.366C79.6163 103.462 79.4477 103.617 79.3109 103.831C79.1742 104.045 79.0694 104.328 78.9965 104.679C78.9281 105.025 78.8939 105.447 78.8939 105.943V108.049C78.8939 108.45 78.9167 108.803 78.9623 109.108C79.0079 109.414 79.0762 109.676 79.1674 109.895C79.2585 110.109 79.3679 110.286 79.4955 110.428C79.6277 110.564 79.7781 110.665 79.9467 110.729C80.1199 110.792 80.309 110.824 80.5141 110.824C80.7738 110.824 81.004 110.774 81.2045 110.674C81.405 110.574 81.5736 110.414 81.7104 110.195C81.8471 109.972 81.9496 109.683 82.018 109.327C82.0863 108.972 82.1205 108.546 82.1205 108.049ZM87.6672 107.372L86.3547 107.051L86.8947 102.047H92.2609V103.441H88.2619L87.9885 105.882C88.1434 105.791 88.3576 105.702 88.6311 105.615C88.9045 105.524 89.2167 105.479 89.5676 105.479C90.037 105.479 90.4563 105.556 90.8254 105.711C91.1991 105.861 91.5158 106.082 91.7756 106.374C92.0354 106.661 92.2336 107.012 92.3703 107.427C92.507 107.837 92.5754 108.299 92.5754 108.814C92.5754 109.275 92.507 109.705 92.3703 110.106C92.2382 110.507 92.0376 110.861 91.7688 111.166C91.4999 111.471 91.1604 111.711 90.7502 111.884C90.3446 112.052 89.8638 112.137 89.3078 112.137C88.8931 112.137 88.4943 112.077 88.1115 111.959C87.7333 111.836 87.3938 111.656 87.093 111.419C86.7922 111.177 86.5507 110.881 86.3684 110.53C86.1861 110.175 86.0813 109.767 86.0539 109.307H87.6672C87.7082 109.63 87.7971 109.906 87.9338 110.134C88.0751 110.357 88.2619 110.528 88.4943 110.646C88.7268 110.765 88.9956 110.824 89.301 110.824C89.579 110.824 89.8182 110.776 90.0188 110.681C90.2193 110.58 90.3856 110.439 90.5178 110.257C90.6545 110.07 90.7548 109.851 90.8186 109.601C90.8869 109.35 90.9211 109.072 90.9211 108.767C90.9211 108.475 90.8824 108.208 90.8049 107.967C90.732 107.725 90.6203 107.516 90.4699 107.338C90.3241 107.16 90.1395 107.023 89.9162 106.928C89.6929 106.827 89.4354 106.777 89.1438 106.777C88.7518 106.777 88.451 106.834 88.2414 106.948C88.0363 107.062 87.8449 107.203 87.6672 107.372Z" fill="#2B4450"/>
<path d="M160.878 68.5146L160.543 69.7246H154.144L154.479 68.5146H160.878ZM157.781 76L154.343 71.9463L154.336 70.9277H155.97C156.393 70.9277 156.742 70.8525 157.015 70.7021C157.293 70.5472 157.501 70.3398 157.638 70.0801C157.774 69.8158 157.843 69.5218 157.843 69.1982C157.843 68.8473 157.779 68.5374 157.651 68.2686C157.524 67.9997 157.321 67.79 157.043 67.6396C156.765 67.4893 156.398 67.4141 155.942 67.4141H154.151L154.52 66.0469H155.942C156.749 66.0469 157.419 66.1676 157.952 66.4092C158.485 66.6507 158.884 67.0016 159.148 67.4619C159.417 67.9222 159.552 68.4782 159.552 69.1299C159.552 69.6995 159.454 70.2031 159.258 70.6406C159.062 71.0736 158.745 71.4245 158.307 71.6934C157.87 71.9577 157.289 72.1217 156.564 72.1855L159.709 75.9111V76H157.781ZM160.885 66.0469L160.543 67.2568H155.313L155.648 66.0469H160.885ZM163.95 74.7012H164.087C164.715 74.7012 165.24 74.6191 165.659 74.4551C166.083 74.2865 166.42 74.054 166.671 73.7578C166.921 73.4616 167.101 73.113 167.211 72.7119C167.32 72.3109 167.375 71.8757 167.375 71.4062V69.6904C167.375 69.2848 167.331 68.9294 167.245 68.624C167.163 68.3141 167.044 68.0566 166.889 67.8516C166.739 67.6419 166.563 67.4847 166.363 67.3799C166.167 67.2751 165.955 67.2227 165.727 67.2227C165.476 67.2227 165.251 67.2796 165.05 67.3936C164.854 67.5029 164.688 67.6556 164.551 67.8516C164.419 68.043 164.317 68.2686 164.244 68.5283C164.175 68.7835 164.141 69.057 164.141 69.3486C164.141 69.6221 164.173 69.8864 164.237 70.1416C164.305 70.3923 164.406 70.6156 164.538 70.8115C164.67 71.0075 164.836 71.1624 165.037 71.2764C165.237 71.3903 165.472 71.4473 165.741 71.4473C165.996 71.4473 166.231 71.3994 166.445 71.3037C166.659 71.2035 166.846 71.069 167.005 70.9004C167.165 70.7318 167.29 70.5426 167.381 70.333C167.473 70.1234 167.523 69.9092 167.532 69.6904L168.161 69.8818C168.161 70.2282 168.088 70.57 167.942 70.9072C167.801 71.2399 167.602 71.5452 167.347 71.8232C167.097 72.0967 166.803 72.3154 166.465 72.4795C166.133 72.6436 165.77 72.7256 165.379 72.7256C164.905 72.7256 164.485 72.6367 164.121 72.459C163.761 72.2767 163.46 72.0306 163.218 71.7207C162.981 71.4108 162.804 71.0553 162.685 70.6543C162.567 70.2533 162.507 69.8317 162.507 69.3896C162.507 68.9111 162.58 68.4622 162.726 68.043C162.872 67.6237 163.084 67.2546 163.362 66.9355C163.64 66.612 163.977 66.3613 164.374 66.1836C164.775 66.0013 165.228 65.9102 165.734 65.9102C166.272 65.9102 166.743 66.015 167.149 66.2246C167.555 66.4342 167.896 66.7236 168.174 67.0928C168.452 67.4619 168.662 67.8903 168.803 68.3779C168.945 68.8656 169.015 69.3896 169.015 69.9502V70.5312C169.015 71.1191 168.963 71.6865 168.858 72.2334C168.753 72.7757 168.582 73.2793 168.345 73.7441C168.113 74.2044 167.805 74.61 167.422 74.9609C167.044 75.3073 166.579 75.5785 166.028 75.7744C165.481 75.9658 164.838 76.0615 164.1 76.0615H163.95V74.7012ZM176.257 65.9854H176.462V67.332H176.346C175.758 67.332 175.25 67.4232 174.822 67.6055C174.398 67.7878 174.049 68.0384 173.776 68.3574C173.502 68.6764 173.297 69.0501 173.161 69.4785C173.028 69.9023 172.962 70.3535 172.962 70.832V72.3975C172.962 72.7939 173.006 73.1449 173.092 73.4502C173.179 73.751 173.3 74.0039 173.454 74.209C173.614 74.4095 173.796 74.5622 174.001 74.667C174.206 74.7718 174.427 74.8242 174.664 74.8242C174.911 74.8242 175.134 74.7741 175.334 74.6738C175.535 74.569 175.706 74.4255 175.847 74.2432C175.988 74.0609 176.095 73.8444 176.168 73.5938C176.241 73.3431 176.278 73.0697 176.278 72.7734C176.278 72.4909 176.241 72.2266 176.168 71.9805C176.1 71.7298 175.997 71.5111 175.861 71.3242C175.724 71.1328 175.553 70.9847 175.348 70.8799C175.148 70.7705 174.915 70.7158 174.651 70.7158C174.323 70.7158 174.024 70.7933 173.755 70.9482C173.491 71.1032 173.277 71.306 173.113 71.5566C172.953 71.8027 172.867 72.0648 172.853 72.3428L172.224 72.1377C172.26 71.7139 172.354 71.3333 172.504 70.9961C172.659 70.6589 172.862 70.3717 173.113 70.1348C173.363 69.8978 173.653 69.7178 173.981 69.5947C174.314 69.4671 174.678 69.4033 175.075 69.4033C175.558 69.4033 175.977 69.4945 176.332 69.6768C176.688 69.859 176.982 70.1074 177.214 70.4219C177.451 70.7318 177.627 71.0872 177.741 71.4883C177.859 71.8848 177.918 72.2995 177.918 72.7324C177.918 73.2109 177.845 73.6576 177.7 74.0723C177.554 74.4824 177.34 74.8424 177.057 75.1523C176.779 75.4622 176.44 75.7038 176.038 75.877C175.642 76.0501 175.191 76.1367 174.685 76.1367C174.152 76.1367 173.676 76.0342 173.256 75.8291C172.842 75.624 172.488 75.3415 172.197 74.9814C171.91 74.6214 171.691 74.2067 171.54 73.7373C171.39 73.2679 171.315 72.7712 171.315 72.2471V71.5635C171.315 70.807 171.411 70.0938 171.602 69.4238C171.793 68.7493 172.087 68.1546 172.484 67.6396C172.885 67.1247 173.398 66.7214 174.022 66.4297C174.646 66.1335 175.391 65.9854 176.257 65.9854ZM181.667 71.3721L180.355 71.0508L180.895 66.0469H186.261V67.4414H182.262L181.988 69.8818C182.143 69.7907 182.358 69.7018 182.631 69.6152C182.904 69.5241 183.217 69.4785 183.568 69.4785C184.037 69.4785 184.456 69.556 184.825 69.7109C185.199 69.8613 185.516 70.0824 185.776 70.374C186.035 70.6611 186.234 71.012 186.37 71.4268C186.507 71.8369 186.575 72.2995 186.575 72.8145C186.575 73.2747 186.507 73.7054 186.37 74.1064C186.238 74.5075 186.038 74.8607 185.769 75.166C185.5 75.4714 185.16 75.7106 184.75 75.8838C184.345 76.0524 183.864 76.1367 183.308 76.1367C182.893 76.1367 182.494 76.0775 182.112 75.959C181.733 75.8359 181.394 75.6559 181.093 75.4189C180.792 75.1774 180.551 74.8812 180.368 74.5303C180.186 74.1748 180.081 73.7669 180.054 73.3066H181.667C181.708 73.6302 181.797 73.9059 181.934 74.1338C182.075 74.3571 182.262 74.528 182.494 74.6465C182.727 74.765 182.996 74.8242 183.301 74.8242C183.579 74.8242 183.818 74.7764 184.019 74.6807C184.219 74.5804 184.386 74.4391 184.518 74.2568C184.654 74.07 184.755 73.8512 184.819 73.6006C184.887 73.3499 184.921 73.0719 184.921 72.7666C184.921 72.4749 184.882 72.2083 184.805 71.9668C184.732 71.7253 184.62 71.5156 184.47 71.3379C184.324 71.1602 184.14 71.0234 183.916 70.9277C183.693 70.8275 183.435 70.7773 183.144 70.7773C182.752 70.7773 182.451 70.8343 182.241 70.9482C182.036 71.0622 181.845 71.2035 181.667 71.3721Z" fill="#2B4450"/>
<path d="M165.206 104.515L164.871 105.725H158.473L158.808 104.515H165.206ZM162.11 112L158.671 107.946L158.664 106.928H160.298C160.722 106.928 161.071 106.853 161.344 106.702C161.622 106.547 161.829 106.34 161.966 106.08C162.103 105.816 162.171 105.522 162.171 105.198C162.171 104.847 162.107 104.537 161.98 104.269C161.852 104 161.649 103.79 161.371 103.64C161.093 103.489 160.726 103.414 160.271 103.414H158.48L158.849 102.047H160.271C161.077 102.047 161.747 102.168 162.28 102.409C162.814 102.651 163.212 103.002 163.477 103.462C163.746 103.922 163.88 104.478 163.88 105.13C163.88 105.7 163.782 106.203 163.586 106.641C163.39 107.074 163.073 107.424 162.636 107.693C162.198 107.958 161.617 108.122 160.893 108.186L164.037 111.911V112H162.11ZM165.213 102.047L164.871 103.257H159.642L159.977 102.047H165.213ZM173.809 108.452V109.765H166.631L166.576 108.773L170.869 102.047H172.188L170.76 104.494L168.292 108.452H173.809ZM172.564 102.047V112H170.917V102.047H172.564ZM182.096 106.189V107.816C182.096 108.596 182.019 109.261 181.864 109.812C181.714 110.359 181.495 110.804 181.208 111.146C180.921 111.487 180.577 111.738 180.176 111.897C179.779 112.057 179.335 112.137 178.843 112.137C178.451 112.137 178.086 112.087 177.749 111.986C177.416 111.886 177.115 111.729 176.846 111.515C176.578 111.3 176.347 111.025 176.156 110.688C175.969 110.346 175.823 109.938 175.719 109.464C175.618 108.99 175.568 108.441 175.568 107.816V106.189C175.568 105.406 175.646 104.745 175.801 104.207C175.956 103.665 176.177 103.225 176.464 102.888C176.751 102.546 177.093 102.298 177.489 102.143C177.89 101.988 178.337 101.91 178.829 101.91C179.225 101.91 179.59 101.96 179.923 102.061C180.26 102.156 180.561 102.309 180.825 102.519C181.094 102.728 181.322 103.002 181.509 103.339C181.7 103.672 181.846 104.075 181.946 104.549C182.046 105.018 182.096 105.565 182.096 106.189ZM180.449 108.049V105.943C180.449 105.547 180.426 105.198 180.381 104.897C180.335 104.592 180.267 104.335 180.176 104.125C180.089 103.911 179.98 103.738 179.847 103.605C179.715 103.469 179.565 103.371 179.396 103.312C179.228 103.248 179.039 103.216 178.829 103.216C178.574 103.216 178.346 103.266 178.145 103.366C177.945 103.462 177.776 103.617 177.639 103.831C177.503 104.045 177.398 104.328 177.325 104.679C177.257 105.025 177.222 105.447 177.222 105.943V108.049C177.222 108.45 177.245 108.803 177.291 109.108C177.336 109.414 177.405 109.676 177.496 109.895C177.587 110.109 177.696 110.286 177.824 110.428C177.956 110.564 178.107 110.665 178.275 110.729C178.448 110.792 178.638 110.824 178.843 110.824C179.102 110.824 179.332 110.774 179.533 110.674C179.734 110.574 179.902 110.414 180.039 110.195C180.176 109.972 180.278 109.683 180.346 109.327C180.415 108.972 180.449 108.546 180.449 108.049Z" fill="#2B4450"/>
<path d="M248.892 31.5146L248.557 32.7246H242.159L242.494 31.5146H248.892ZM245.796 39L242.357 34.9463L242.35 33.9277H243.984C244.408 33.9277 244.756 33.8525 245.03 33.7021C245.308 33.5472 245.515 33.3398 245.652 33.0801C245.789 32.8158 245.857 32.5218 245.857 32.1982C245.857 31.8473 245.793 31.5374 245.666 31.2686C245.538 30.9997 245.335 30.79 245.057 30.6396C244.779 30.4893 244.412 30.4141 243.957 30.4141H242.166L242.535 29.0469H243.957C244.763 29.0469 245.433 29.1676 245.966 29.4092C246.5 29.6507 246.898 30.0016 247.163 30.4619C247.432 30.9222 247.566 31.4782 247.566 32.1299C247.566 32.6995 247.468 33.2031 247.272 33.6406C247.076 34.0736 246.759 34.4245 246.322 34.6934C245.884 34.9577 245.303 35.1217 244.579 35.1855L247.723 38.9111V39H245.796ZM248.899 29.0469L248.557 30.2568H243.328L243.663 29.0469H248.899ZM251.964 37.7012H252.101C252.73 37.7012 253.254 37.6191 253.673 37.4551C254.097 37.2865 254.434 37.054 254.685 36.7578C254.936 36.4616 255.116 36.113 255.225 35.7119C255.334 35.3109 255.389 34.8757 255.389 34.4062V32.6904C255.389 32.2848 255.346 31.9294 255.259 31.624C255.177 31.3141 255.059 31.0566 254.904 30.8516C254.753 30.6419 254.578 30.4847 254.377 30.3799C254.181 30.2751 253.969 30.2227 253.742 30.2227C253.491 30.2227 253.265 30.2796 253.065 30.3936C252.869 30.5029 252.703 30.6556 252.566 30.8516C252.434 31.043 252.331 31.2686 252.258 31.5283C252.19 31.7835 252.156 32.057 252.156 32.3486C252.156 32.6221 252.188 32.8864 252.251 33.1416C252.32 33.3923 252.42 33.6156 252.552 33.8115C252.684 34.0075 252.851 34.1624 253.051 34.2764C253.252 34.3903 253.486 34.4473 253.755 34.4473C254.01 34.4473 254.245 34.3994 254.459 34.3037C254.674 34.2035 254.86 34.069 255.02 33.9004C255.179 33.7318 255.305 33.5426 255.396 33.333C255.487 33.1234 255.537 32.9092 255.546 32.6904L256.175 32.8818C256.175 33.2282 256.102 33.57 255.956 33.9072C255.815 34.2399 255.617 34.5452 255.362 34.8232C255.111 35.0967 254.817 35.3154 254.48 35.4795C254.147 35.6436 253.785 35.7256 253.393 35.7256C252.919 35.7256 252.5 35.6367 252.135 35.459C251.775 35.2767 251.474 35.0306 251.233 34.7207C250.996 34.4108 250.818 34.0553 250.7 33.6543C250.581 33.2533 250.522 32.8317 250.522 32.3896C250.522 31.9111 250.595 31.4622 250.741 31.043C250.886 30.6237 251.098 30.2546 251.376 29.9355C251.654 29.612 251.992 29.3613 252.388 29.1836C252.789 29.0013 253.243 28.9102 253.748 28.9102C254.286 28.9102 254.758 29.015 255.163 29.2246C255.569 29.4342 255.911 29.7236 256.189 30.0928C256.467 30.4619 256.676 30.8903 256.818 31.3779C256.959 31.8656 257.03 32.3896 257.03 32.9502V33.5312C257.03 34.1191 256.977 34.6865 256.872 35.2334C256.768 35.7757 256.597 36.2793 256.36 36.7441C256.127 37.2044 255.82 37.61 255.437 37.9609C255.059 38.3073 254.594 38.5785 254.042 38.7744C253.496 38.9658 252.853 39.0615 252.115 39.0615H251.964V37.7012ZM260.621 37.7012H260.758C261.387 37.7012 261.911 37.6191 262.33 37.4551C262.754 37.2865 263.091 37.054 263.342 36.7578C263.593 36.4616 263.773 36.113 263.882 35.7119C263.991 35.3109 264.046 34.8757 264.046 34.4062V32.6904C264.046 32.2848 264.003 31.9294 263.916 31.624C263.834 31.3141 263.716 31.0566 263.561 30.8516C263.41 30.6419 263.235 30.4847 263.034 30.3799C262.838 30.2751 262.626 30.2227 262.399 30.2227C262.148 30.2227 261.922 30.2796 261.722 30.3936C261.526 30.5029 261.36 30.6556 261.223 30.8516C261.091 31.043 260.988 31.2686 260.915 31.5283C260.847 31.7835 260.813 32.057 260.813 32.3486C260.813 32.6221 260.845 32.8864 260.908 33.1416C260.977 33.3923 261.077 33.6156 261.209 33.8115C261.341 34.0075 261.508 34.1624 261.708 34.2764C261.909 34.3903 262.143 34.4473 262.412 34.4473C262.668 34.4473 262.902 34.3994 263.116 34.3037C263.331 34.2035 263.517 34.069 263.677 33.9004C263.836 33.7318 263.962 33.5426 264.053 33.333C264.144 33.1234 264.194 32.9092 264.203 32.6904L264.832 32.8818C264.832 33.2282 264.759 33.57 264.613 33.9072C264.472 34.2399 264.274 34.5452 264.019 34.8232C263.768 35.0967 263.474 35.3154 263.137 35.4795C262.804 35.6436 262.442 35.7256 262.05 35.7256C261.576 35.7256 261.157 35.6367 260.792 35.459C260.432 35.2767 260.131 35.0306 259.89 34.7207C259.653 34.4108 259.475 34.0553 259.357 33.6543C259.238 33.2533 259.179 32.8317 259.179 32.3896C259.179 31.9111 259.252 31.4622 259.398 31.043C259.543 30.6237 259.755 30.2546 260.033 29.9355C260.311 29.612 260.649 29.3613 261.045 29.1836C261.446 29.0013 261.9 28.9102 262.405 28.9102C262.943 28.9102 263.415 29.015 263.821 29.2246C264.226 29.4342 264.568 29.7236 264.846 30.0928C265.124 30.4619 265.334 30.8903 265.475 31.3779C265.616 31.8656 265.687 32.3896 265.687 32.9502V33.5312C265.687 34.1191 265.634 34.6865 265.529 35.2334C265.425 35.7757 265.254 36.2793 265.017 36.7441C264.784 37.2044 264.477 37.61 264.094 37.9609C263.716 38.3073 263.251 38.5785 262.699 38.7744C262.153 38.9658 261.51 39.0615 260.772 39.0615H260.621V37.7012ZM269.278 37.7012H269.415C270.044 37.7012 270.568 37.6191 270.987 37.4551C271.411 37.2865 271.748 37.054 271.999 36.7578C272.25 36.4616 272.43 36.113 272.539 35.7119C272.648 35.3109 272.703 34.8757 272.703 34.4062V32.6904C272.703 32.2848 272.66 31.9294 272.573 31.624C272.491 31.3141 272.373 31.0566 272.218 30.8516C272.067 30.6419 271.892 30.4847 271.691 30.3799C271.495 30.2751 271.284 30.2227 271.056 30.2227C270.805 30.2227 270.579 30.2796 270.379 30.3936C270.183 30.5029 270.017 30.6556 269.88 30.8516C269.748 31.043 269.645 31.2686 269.572 31.5283C269.504 31.7835 269.47 32.057 269.47 32.3486C269.47 32.6221 269.502 32.8864 269.565 33.1416C269.634 33.3923 269.734 33.6156 269.866 33.8115C269.998 34.0075 270.165 34.1624 270.365 34.2764C270.566 34.3903 270.8 34.4473 271.069 34.4473C271.325 34.4473 271.559 34.3994 271.773 34.3037C271.988 34.2035 272.174 34.069 272.334 33.9004C272.493 33.7318 272.619 33.5426 272.71 33.333C272.801 33.1234 272.851 32.9092 272.86 32.6904L273.489 32.8818C273.489 33.2282 273.416 33.57 273.271 33.9072C273.129 34.2399 272.931 34.5452 272.676 34.8232C272.425 35.0967 272.131 35.3154 271.794 35.4795C271.461 35.6436 271.099 35.7256 270.707 35.7256C270.233 35.7256 269.814 35.6367 269.449 35.459C269.089 35.2767 268.788 35.0306 268.547 34.7207C268.31 34.4108 268.132 34.0553 268.014 33.6543C267.895 33.2533 267.836 32.8317 267.836 32.3896C267.836 31.9111 267.909 31.4622 268.055 31.043C268.201 30.6237 268.412 30.2546 268.69 29.9355C268.968 29.612 269.306 29.3613 269.702 29.1836C270.103 29.0013 270.557 28.9102 271.062 28.9102C271.6 28.9102 272.072 29.015 272.478 29.2246C272.883 29.4342 273.225 29.7236 273.503 30.0928C273.781 30.4619 273.991 30.8903 274.132 31.3779C274.273 31.8656 274.344 32.3896 274.344 32.9502V33.5312C274.344 34.1191 274.291 34.6865 274.187 35.2334C274.082 35.7757 273.911 36.2793 273.674 36.7441C273.441 37.2044 273.134 37.61 272.751 37.9609C272.373 38.3073 271.908 38.5785 271.356 38.7744C270.81 38.9658 270.167 39.0615 269.429 39.0615H269.278V37.7012ZM283.117 36.2861C283.117 36.9059 282.973 37.4277 282.686 37.8516C282.399 38.2754 282.007 38.5967 281.511 38.8154C281.018 39.0296 280.462 39.1367 279.843 39.1367C279.223 39.1367 278.665 39.0296 278.168 38.8154C277.671 38.5967 277.279 38.2754 276.992 37.8516C276.705 37.4277 276.561 36.9059 276.561 36.2861C276.561 35.876 276.641 35.5046 276.801 35.1719C276.96 34.8346 277.186 34.5452 277.477 34.3037C277.774 34.0576 278.12 33.8685 278.516 33.7363C278.917 33.6042 279.355 33.5381 279.829 33.5381C280.458 33.5381 281.021 33.6543 281.517 33.8867C282.014 34.1191 282.404 34.4404 282.686 34.8506C282.973 35.2607 283.117 35.7393 283.117 36.2861ZM281.463 36.2041C281.463 35.8714 281.394 35.5798 281.258 35.3291C281.121 35.0785 280.929 34.8848 280.683 34.748C280.437 34.6113 280.152 34.543 279.829 34.543C279.501 34.543 279.216 34.6113 278.974 34.748C278.733 34.8848 278.544 35.0785 278.407 35.3291C278.275 35.5798 278.209 35.8714 278.209 36.2041C278.209 36.5413 278.275 36.833 278.407 37.0791C278.539 37.3206 278.728 37.5052 278.974 37.6328C279.221 37.7604 279.51 37.8242 279.843 37.8242C280.175 37.8242 280.462 37.7604 280.704 37.6328C280.945 37.5052 281.132 37.3206 281.264 37.0791C281.397 36.833 281.463 36.5413 281.463 36.2041ZM282.891 31.665C282.891 32.1618 282.759 32.6038 282.495 32.9912C282.235 33.3786 281.875 33.6839 281.415 33.9072C280.955 34.126 280.43 34.2354 279.843 34.2354C279.25 34.2354 278.721 34.126 278.257 33.9072C277.796 33.6839 277.434 33.3786 277.17 32.9912C276.91 32.6038 276.78 32.1618 276.78 31.665C276.78 31.0726 276.91 30.5736 277.17 30.168C277.434 29.7578 277.796 29.4456 278.257 29.2314C278.717 29.0173 279.243 28.9102 279.836 28.9102C280.428 28.9102 280.955 29.0173 281.415 29.2314C281.875 29.4456 282.235 29.7578 282.495 30.168C282.759 30.5736 282.891 31.0726 282.891 31.665ZM281.244 31.7197C281.244 31.4235 281.185 31.1637 281.066 30.9404C280.952 30.7126 280.79 30.5348 280.581 30.4072C280.371 30.2796 280.123 30.2158 279.836 30.2158C279.549 30.2158 279.3 30.2773 279.091 30.4004C278.881 30.5234 278.719 30.6966 278.605 30.9199C278.491 31.1432 278.434 31.4098 278.434 31.7197C278.434 32.0251 278.491 32.2917 278.605 32.5195C278.719 32.7428 278.881 32.9183 279.091 33.0459C279.305 33.1735 279.555 33.2373 279.843 33.2373C280.13 33.2373 280.378 33.1735 280.588 33.0459C280.797 32.9183 280.959 32.7428 281.073 32.5195C281.187 32.2917 281.244 32.0251 281.244 31.7197ZM286.996 34.3721L285.683 34.0508L286.223 29.0469H291.589V30.4414H287.59L287.317 32.8818C287.472 32.7907 287.686 32.7018 287.96 32.6152C288.233 32.5241 288.545 32.4785 288.896 32.4785C289.365 32.4785 289.785 32.556 290.154 32.7109C290.528 32.8613 290.844 33.0824 291.104 33.374C291.364 33.6611 291.562 34.012 291.699 34.4268C291.836 34.8369 291.904 35.2995 291.904 35.8145C291.904 36.2747 291.836 36.7054 291.699 37.1064C291.567 37.5075 291.366 37.8607 291.097 38.166C290.828 38.4714 290.489 38.7106 290.079 38.8838C289.673 39.0524 289.192 39.1367 288.636 39.1367C288.222 39.1367 287.823 39.0775 287.44 38.959C287.062 38.8359 286.722 38.6559 286.421 38.4189C286.121 38.1774 285.879 37.8812 285.697 37.5303C285.515 37.1748 285.41 36.7669 285.382 36.3066H286.996C287.037 36.6302 287.126 36.9059 287.262 37.1338C287.404 37.3571 287.59 37.528 287.823 37.6465C288.055 37.765 288.324 37.8242 288.629 37.8242C288.907 37.8242 289.147 37.7764 289.347 37.6807C289.548 37.5804 289.714 37.4391 289.846 37.2568C289.983 37.07 290.083 36.8512 290.147 36.6006C290.215 36.3499 290.25 36.0719 290.25 35.7666C290.25 35.4749 290.211 35.2083 290.133 34.9668C290.06 34.7253 289.949 34.5156 289.798 34.3379C289.653 34.1602 289.468 34.0234 289.245 33.9277C289.021 33.8275 288.764 33.7773 288.472 33.7773C288.08 33.7773 287.78 33.8343 287.57 33.9482C287.365 34.0622 287.173 34.2035 286.996 34.3721ZM300.411 33.1895V34.8164C300.411 35.5957 300.333 36.2611 300.178 36.8125C300.028 37.3594 299.809 37.8037 299.522 38.1455C299.235 38.4873 298.891 38.738 298.49 38.8975C298.093 39.057 297.649 39.1367 297.157 39.1367C296.765 39.1367 296.4 39.0866 296.063 38.9863C295.73 38.8861 295.429 38.7288 295.161 38.5146C294.892 38.3005 294.662 38.0247 294.47 37.6875C294.283 37.3457 294.137 36.9378 294.033 36.4639C293.932 35.9899 293.882 35.4408 293.882 34.8164V33.1895C293.882 32.4056 293.96 31.7448 294.115 31.207C294.27 30.6647 294.491 30.2249 294.778 29.8877C295.065 29.5459 295.407 29.2975 295.803 29.1426C296.204 28.9876 296.651 28.9102 297.143 28.9102C297.539 28.9102 297.904 28.9603 298.237 29.0605C298.574 29.1562 298.875 29.3089 299.139 29.5186C299.408 29.7282 299.636 30.0016 299.823 30.3389C300.014 30.6715 300.16 31.0749 300.26 31.5488C300.36 32.0182 300.411 32.5651 300.411 33.1895ZM298.763 35.0488V32.9434C298.763 32.5469 298.74 32.1982 298.695 31.8975C298.649 31.5921 298.581 31.3346 298.49 31.125C298.403 30.9108 298.294 30.7376 298.162 30.6055C298.029 30.4688 297.879 30.3708 297.71 30.3115C297.542 30.2477 297.353 30.2158 297.143 30.2158C296.888 30.2158 296.66 30.266 296.459 30.3662C296.259 30.4619 296.09 30.6169 295.954 30.8311C295.817 31.0452 295.712 31.3278 295.639 31.6787C295.571 32.0251 295.537 32.4466 295.537 32.9434V35.0488C295.537 35.4499 295.559 35.8031 295.605 36.1084C295.65 36.4137 295.719 36.6758 295.81 36.8945C295.901 37.1087 296.01 37.2865 296.138 37.4277C296.27 37.5645 296.421 37.6647 296.589 37.7285C296.762 37.7923 296.952 37.8242 297.157 37.8242C297.416 37.8242 297.647 37.7741 297.847 37.6738C298.048 37.5736 298.216 37.4141 298.353 37.1953C298.49 36.972 298.592 36.6826 298.661 36.3271C298.729 35.9717 298.763 35.5456 298.763 35.0488Z" fill="#2B4450"/>
<path d="M244.564 68.5146L244.229 69.7246H237.83L238.165 68.5146H244.564ZM241.467 76L238.029 71.9463L238.022 70.9277H239.655C240.079 70.9277 240.428 70.8525 240.701 70.7021C240.979 70.5472 241.187 70.3398 241.323 70.0801C241.46 69.8158 241.529 69.5218 241.529 69.1982C241.529 68.8473 241.465 68.5374 241.337 68.2686C241.21 67.9997 241.007 67.79 240.729 67.6396C240.451 67.4893 240.084 67.4141 239.628 67.4141H237.837L238.206 66.0469H239.628C240.435 66.0469 241.105 66.1676 241.638 66.4092C242.171 66.6507 242.57 67.0016 242.834 67.4619C243.103 67.9222 243.237 68.4782 243.237 69.1299C243.237 69.6995 243.14 70.2031 242.944 70.6406C242.748 71.0736 242.431 71.4245 241.993 71.6934C241.556 71.9577 240.975 72.1217 240.25 72.1855L243.395 75.9111V76H241.467ZM244.571 66.0469L244.229 67.2568H238.999L239.334 66.0469H244.571ZM253.166 72.4521V73.7646H245.988L245.934 72.7734L250.227 66.0469H251.546L250.117 68.4941L247.649 72.4521H253.166ZM251.922 66.0469V76H250.274V66.0469H251.922ZM261.474 73.2861C261.474 73.9059 261.331 74.4277 261.044 74.8516C260.757 75.2754 260.365 75.5967 259.868 75.8154C259.376 76.0296 258.82 76.1367 258.2 76.1367C257.58 76.1367 257.022 76.0296 256.525 75.8154C256.028 75.5967 255.637 75.2754 255.349 74.8516C255.062 74.4277 254.919 73.9059 254.919 73.2861C254.919 72.876 254.999 72.5046 255.158 72.1719C255.318 71.8346 255.543 71.5452 255.835 71.3037C256.131 71.0576 256.477 70.8685 256.874 70.7363C257.275 70.6042 257.712 70.5381 258.186 70.5381C258.815 70.5381 259.378 70.6543 259.875 70.8867C260.372 71.1191 260.761 71.4404 261.044 71.8506C261.331 72.2607 261.474 72.7393 261.474 73.2861ZM259.82 73.2041C259.82 72.8714 259.752 72.5798 259.615 72.3291C259.478 72.0785 259.287 71.8848 259.041 71.748C258.795 71.6113 258.51 71.543 258.186 71.543C257.858 71.543 257.573 71.6113 257.332 71.748C257.09 71.8848 256.901 72.0785 256.764 72.3291C256.632 72.5798 256.566 72.8714 256.566 73.2041C256.566 73.5413 256.632 73.833 256.764 74.0791C256.897 74.3206 257.086 74.5052 257.332 74.6328C257.578 74.7604 257.867 74.8242 258.2 74.8242C258.533 74.8242 258.82 74.7604 259.061 74.6328C259.303 74.5052 259.49 74.3206 259.622 74.0791C259.754 73.833 259.82 73.5413 259.82 73.2041ZM261.249 68.665C261.249 69.1618 261.117 69.6038 260.852 69.9912C260.593 70.3786 260.233 70.6839 259.772 70.9072C259.312 71.126 258.788 71.2354 258.2 71.2354C257.608 71.2354 257.079 71.126 256.614 70.9072C256.154 70.6839 255.791 70.3786 255.527 69.9912C255.267 69.6038 255.137 69.1618 255.137 68.665C255.137 68.0726 255.267 67.5736 255.527 67.168C255.791 66.7578 256.154 66.4456 256.614 66.2314C257.074 66.0173 257.601 65.9102 258.193 65.9102C258.786 65.9102 259.312 66.0173 259.772 66.2314C260.233 66.4456 260.593 66.7578 260.852 67.168C261.117 67.5736 261.249 68.0726 261.249 68.665ZM259.601 68.7197C259.601 68.4235 259.542 68.1637 259.424 67.9404C259.31 67.7126 259.148 67.5348 258.938 67.4072C258.729 67.2796 258.48 67.2158 258.193 67.2158C257.906 67.2158 257.658 67.2773 257.448 67.4004C257.238 67.5234 257.077 67.6966 256.963 67.9199C256.849 68.1432 256.792 68.4098 256.792 68.7197C256.792 69.0251 256.849 69.2917 256.963 69.5195C257.077 69.7428 257.238 69.9183 257.448 70.0459C257.662 70.1735 257.913 70.2373 258.2 70.2373C258.487 70.2373 258.735 70.1735 258.945 70.0459C259.155 69.9183 259.317 69.7428 259.43 69.5195C259.544 69.2917 259.601 69.0251 259.601 68.7197ZM270.48 72.4521V73.7646H263.302L263.248 72.7734L267.541 66.0469H268.86L267.431 68.4941L264.963 72.4521H270.48ZM269.236 66.0469V76H267.588V66.0469H269.236ZM274.01 71.3721L272.698 71.0508L273.238 66.0469H278.604V67.4414H274.605L274.331 69.8818C274.486 69.7907 274.701 69.7018 274.974 69.6152C275.247 69.5241 275.56 69.4785 275.911 69.4785C276.38 69.4785 276.799 69.556 277.168 69.7109C277.542 69.8613 277.859 70.0824 278.119 70.374C278.378 70.6611 278.577 71.012 278.713 71.4268C278.85 71.8369 278.918 72.2995 278.918 72.8145C278.918 73.2747 278.85 73.7054 278.713 74.1064C278.581 74.5075 278.381 74.8607 278.112 75.166C277.843 75.4714 277.503 75.7106 277.093 75.8838C276.688 76.0524 276.207 76.1367 275.651 76.1367C275.236 76.1367 274.837 76.0775 274.454 75.959C274.076 75.8359 273.737 75.6559 273.436 75.4189C273.135 75.1774 272.894 74.8812 272.711 74.5303C272.529 74.1748 272.424 73.7669 272.397 73.3066H274.01C274.051 73.6302 274.14 73.9059 274.277 74.1338C274.418 74.3571 274.605 74.528 274.837 74.6465C275.07 74.765 275.339 74.8242 275.644 74.8242C275.922 74.8242 276.161 74.7764 276.362 74.6807C276.562 74.5804 276.729 74.4391 276.861 74.2568C276.997 74.07 277.098 73.8512 277.162 73.6006C277.23 73.3499 277.264 73.0719 277.264 72.7666C277.264 72.4749 277.225 72.2083 277.148 71.9668C277.075 71.7253 276.963 71.5156 276.813 71.3379C276.667 71.1602 276.482 71.0234 276.259 70.9277C276.036 70.8275 275.778 70.7773 275.487 70.7773C275.095 70.7773 274.794 70.8343 274.584 70.9482C274.379 71.0622 274.188 71.2035 274.01 71.3721ZM285.436 66.0127V76H283.788V67.9678L281.348 68.7949V67.4346L285.237 66.0127H285.436ZM294.571 65.9854H294.776V67.332H294.66C294.072 67.332 293.564 67.4232 293.136 67.6055C292.712 67.7878 292.363 68.0384 292.09 68.3574C291.816 68.6764 291.611 69.0501 291.475 69.4785C291.342 69.9023 291.276 70.3535 291.276 70.832V72.3975C291.276 72.7939 291.32 73.1449 291.406 73.4502C291.493 73.751 291.614 74.0039 291.769 74.209C291.928 74.4095 292.11 74.5622 292.315 74.667C292.521 74.7718 292.742 74.8242 292.979 74.8242C293.225 74.8242 293.448 74.7741 293.648 74.6738C293.849 74.569 294.02 74.4255 294.161 74.2432C294.302 74.0609 294.41 73.8444 294.482 73.5938C294.555 73.3431 294.592 73.0697 294.592 72.7734C294.592 72.4909 294.555 72.2266 294.482 71.9805C294.414 71.7298 294.312 71.5111 294.175 71.3242C294.038 71.1328 293.867 70.9847 293.662 70.8799C293.462 70.7705 293.229 70.7158 292.965 70.7158C292.637 70.7158 292.338 70.7933 292.069 70.9482C291.805 71.1032 291.591 71.306 291.427 71.5566C291.267 71.8027 291.181 72.0648 291.167 72.3428L290.538 72.1377C290.575 71.7139 290.668 71.3333 290.818 70.9961C290.973 70.6589 291.176 70.3717 291.427 70.1348C291.677 69.8978 291.967 69.7178 292.295 69.5947C292.628 69.4671 292.992 69.4033 293.389 69.4033C293.872 69.4033 294.291 69.4945 294.646 69.6768C295.002 69.859 295.296 70.1074 295.528 70.4219C295.765 70.7318 295.941 71.0872 296.055 71.4883C296.173 71.8848 296.232 72.2995 296.232 72.7324C296.232 73.2109 296.16 73.6576 296.014 74.0723C295.868 74.4824 295.654 74.8424 295.371 75.1523C295.093 75.4622 294.754 75.7038 294.353 75.877C293.956 76.0501 293.505 76.1367 292.999 76.1367C292.466 76.1367 291.99 76.0342 291.57 75.8291C291.156 75.624 290.802 75.3415 290.511 74.9814C290.224 74.6214 290.005 74.2067 289.854 73.7373C289.704 73.2679 289.629 72.7712 289.629 72.2471V71.5635C289.629 70.807 289.725 70.0938 289.916 69.4238C290.107 68.7493 290.401 68.1546 290.798 67.6396C291.199 67.1247 291.712 66.7214 292.336 66.4297C292.96 66.1335 293.705 65.9854 294.571 65.9854ZM304.924 74.6875V76H298.252V74.8721L301.492 71.3379C301.847 70.9368 302.128 70.5905 302.333 70.2988C302.538 70.0072 302.681 69.7451 302.763 69.5127C302.85 69.2757 302.893 69.0456 302.893 68.8223C302.893 68.5078 302.834 68.2321 302.716 67.9951C302.602 67.7536 302.433 67.5645 302.21 67.4277C301.986 67.2865 301.715 67.2158 301.396 67.2158C301.027 67.2158 300.717 67.2956 300.467 67.4551C300.216 67.6146 300.027 67.8356 299.899 68.1182C299.772 68.3962 299.708 68.7152 299.708 69.0752H298.06C298.06 68.4964 298.193 67.9678 298.457 67.4893C298.721 67.0062 299.104 66.6234 299.605 66.3408C300.107 66.0537 300.71 65.9102 301.417 65.9102C302.082 65.9102 302.647 66.0218 303.112 66.2451C303.577 66.4684 303.93 66.7852 304.172 67.1953C304.418 67.6055 304.541 68.0908 304.541 68.6514C304.541 68.9613 304.491 69.2689 304.39 69.5742C304.29 69.8796 304.147 70.1849 303.96 70.4902C303.777 70.791 303.561 71.0941 303.31 71.3994C303.06 71.7002 302.784 72.0055 302.483 72.3154L300.33 74.6875H304.924Z" fill="#2B4450"/>
<path d="M253.221 104.515L252.886 105.725H246.487L246.822 104.515H253.221ZM250.124 112L246.686 107.946L246.679 106.928H248.312C248.736 106.928 249.085 106.853 249.358 106.702C249.636 106.547 249.844 106.34 249.98 106.08C250.117 105.816 250.186 105.522 250.186 105.198C250.186 104.847 250.122 104.537 249.994 104.269C249.867 104 249.664 103.79 249.386 103.64C249.108 103.489 248.741 103.414 248.285 103.414H246.494L246.863 102.047H248.285C249.092 102.047 249.762 102.168 250.295 102.409C250.828 102.651 251.227 103.002 251.491 103.462C251.76 103.922 251.895 104.478 251.895 105.13C251.895 105.7 251.797 106.203 251.601 106.641C251.405 107.074 251.088 107.424 250.65 107.693C250.213 107.958 249.632 108.122 248.907 108.186L252.052 111.911V112H250.124ZM253.228 102.047L252.886 103.257H247.656L247.991 102.047H253.228ZM261.823 108.452V109.765H254.645L254.591 108.773L258.884 102.047H260.203L258.774 104.494L256.306 108.452H261.823ZM260.579 102.047V112H258.931V102.047H260.579ZM270.111 106.189V107.816C270.111 108.596 270.033 109.261 269.879 109.812C269.728 110.359 269.509 110.804 269.222 111.146C268.935 111.487 268.591 111.738 268.19 111.897C267.794 112.057 267.349 112.137 266.857 112.137C266.465 112.137 266.101 112.087 265.763 111.986C265.431 111.886 265.13 111.729 264.861 111.515C264.592 111.3 264.362 111.025 264.171 110.688C263.984 110.346 263.838 109.938 263.733 109.464C263.633 108.99 263.583 108.441 263.583 107.816V106.189C263.583 105.406 263.66 104.745 263.815 104.207C263.97 103.665 264.191 103.225 264.478 102.888C264.765 102.546 265.107 102.298 265.504 102.143C265.905 101.988 266.351 101.91 266.843 101.91C267.24 101.91 267.604 101.96 267.937 102.061C268.274 102.156 268.575 102.309 268.839 102.519C269.108 102.728 269.336 103.002 269.523 103.339C269.714 103.672 269.86 104.075 269.961 104.549C270.061 105.018 270.111 105.565 270.111 106.189ZM268.463 108.049V105.943C268.463 105.547 268.441 105.198 268.395 104.897C268.35 104.592 268.281 104.335 268.19 104.125C268.103 103.911 267.994 103.738 267.862 103.605C267.73 103.469 267.579 103.371 267.411 103.312C267.242 103.248 267.053 103.216 266.843 103.216C266.588 103.216 266.36 103.266 266.16 103.366C265.959 103.462 265.791 103.617 265.654 103.831C265.517 104.045 265.412 104.328 265.339 104.679C265.271 105.025 265.237 105.447 265.237 105.943V108.049C265.237 108.45 265.26 108.803 265.305 109.108C265.351 109.414 265.419 109.676 265.51 109.895C265.601 110.109 265.711 110.286 265.838 110.428C265.971 110.564 266.121 110.665 266.29 110.729C266.463 110.792 266.652 110.824 266.857 110.824C267.117 110.824 267.347 110.774 267.547 110.674C267.748 110.574 267.917 110.414 268.053 110.195C268.19 109.972 268.293 109.683 268.361 109.327C268.429 108.972 268.463 108.546 268.463 108.049ZM278.788 109.286C278.788 109.906 278.645 110.428 278.358 110.852C278.071 111.275 277.679 111.597 277.182 111.815C276.69 112.03 276.134 112.137 275.514 112.137C274.894 112.137 274.336 112.03 273.839 111.815C273.343 111.597 272.951 111.275 272.663 110.852C272.376 110.428 272.233 109.906 272.233 109.286C272.233 108.876 272.313 108.505 272.472 108.172C272.632 107.835 272.857 107.545 273.149 107.304C273.445 107.058 273.791 106.868 274.188 106.736C274.589 106.604 275.026 106.538 275.5 106.538C276.129 106.538 276.692 106.654 277.189 106.887C277.686 107.119 278.075 107.44 278.358 107.851C278.645 108.261 278.788 108.739 278.788 109.286ZM277.134 109.204C277.134 108.871 277.066 108.58 276.929 108.329C276.792 108.078 276.601 107.885 276.355 107.748C276.109 107.611 275.824 107.543 275.5 107.543C275.172 107.543 274.887 107.611 274.646 107.748C274.404 107.885 274.215 108.078 274.079 108.329C273.946 108.58 273.88 108.871 273.88 109.204C273.88 109.541 273.946 109.833 274.079 110.079C274.211 110.321 274.4 110.505 274.646 110.633C274.892 110.76 275.181 110.824 275.514 110.824C275.847 110.824 276.134 110.76 276.375 110.633C276.617 110.505 276.804 110.321 276.936 110.079C277.068 109.833 277.134 109.541 277.134 109.204ZM278.563 104.665C278.563 105.162 278.431 105.604 278.166 105.991C277.907 106.379 277.547 106.684 277.086 106.907C276.626 107.126 276.102 107.235 275.514 107.235C274.922 107.235 274.393 107.126 273.928 106.907C273.468 106.684 273.106 106.379 272.841 105.991C272.581 105.604 272.452 105.162 272.452 104.665C272.452 104.073 272.581 103.574 272.841 103.168C273.106 102.758 273.468 102.446 273.928 102.231C274.388 102.017 274.915 101.91 275.507 101.91C276.1 101.91 276.626 102.017 277.086 102.231C277.547 102.446 277.907 102.758 278.166 103.168C278.431 103.574 278.563 104.073 278.563 104.665ZM276.915 104.72C276.915 104.424 276.856 104.164 276.738 103.94C276.624 103.713 276.462 103.535 276.252 103.407C276.043 103.28 275.794 103.216 275.507 103.216C275.22 103.216 274.972 103.277 274.762 103.4C274.552 103.523 274.391 103.697 274.277 103.92C274.163 104.143 274.106 104.41 274.106 104.72C274.106 105.025 274.163 105.292 274.277 105.52C274.391 105.743 274.552 105.918 274.762 106.046C274.976 106.174 275.227 106.237 275.514 106.237C275.801 106.237 276.05 106.174 276.259 106.046C276.469 105.918 276.631 105.743 276.745 105.52C276.858 105.292 276.915 105.025 276.915 104.72ZM285.914 101.985H286.119V103.332H286.003C285.415 103.332 284.907 103.423 284.479 103.605C284.055 103.788 283.706 104.038 283.433 104.357C283.159 104.676 282.954 105.05 282.818 105.479C282.685 105.902 282.619 106.354 282.619 106.832V108.397C282.619 108.794 282.663 109.145 282.749 109.45C282.836 109.751 282.957 110.004 283.112 110.209C283.271 110.41 283.453 110.562 283.658 110.667C283.863 110.772 284.085 110.824 284.321 110.824C284.568 110.824 284.791 110.774 284.991 110.674C285.192 110.569 285.363 110.425 285.504 110.243C285.645 110.061 285.752 109.844 285.825 109.594C285.898 109.343 285.935 109.07 285.935 108.773C285.935 108.491 285.898 108.227 285.825 107.98C285.757 107.73 285.654 107.511 285.518 107.324C285.381 107.133 285.21 106.985 285.005 106.88C284.805 106.771 284.572 106.716 284.308 106.716C283.98 106.716 283.681 106.793 283.412 106.948C283.148 107.103 282.934 107.306 282.77 107.557C282.61 107.803 282.524 108.065 282.51 108.343L281.881 108.138C281.918 107.714 282.011 107.333 282.161 106.996C282.316 106.659 282.519 106.372 282.77 106.135C283.02 105.898 283.31 105.718 283.638 105.595C283.971 105.467 284.335 105.403 284.732 105.403C285.215 105.403 285.634 105.494 285.989 105.677C286.345 105.859 286.639 106.107 286.871 106.422C287.108 106.732 287.284 107.087 287.398 107.488C287.516 107.885 287.575 108.299 287.575 108.732C287.575 109.211 287.502 109.658 287.357 110.072C287.211 110.482 286.997 110.842 286.714 111.152C286.436 111.462 286.097 111.704 285.696 111.877C285.299 112.05 284.848 112.137 284.342 112.137C283.809 112.137 283.333 112.034 282.913 111.829C282.499 111.624 282.145 111.341 281.854 110.981C281.567 110.621 281.348 110.207 281.197 109.737C281.047 109.268 280.972 108.771 280.972 108.247V107.563C280.972 106.807 281.068 106.094 281.259 105.424C281.45 104.749 281.744 104.155 282.141 103.64C282.542 103.125 283.055 102.721 283.679 102.43C284.303 102.133 285.048 101.985 285.914 101.985ZM296.267 110.688V112H289.595V110.872L292.835 107.338C293.19 106.937 293.471 106.59 293.676 106.299C293.881 106.007 294.024 105.745 294.106 105.513C294.193 105.276 294.236 105.046 294.236 104.822C294.236 104.508 294.177 104.232 294.059 103.995C293.945 103.754 293.776 103.564 293.553 103.428C293.329 103.286 293.058 103.216 292.739 103.216C292.37 103.216 292.06 103.296 291.81 103.455C291.559 103.615 291.37 103.836 291.242 104.118C291.115 104.396 291.051 104.715 291.051 105.075H289.403C289.403 104.496 289.535 103.968 289.8 103.489C290.064 103.006 290.447 102.623 290.948 102.341C291.45 102.054 292.053 101.91 292.76 101.91C293.425 101.91 293.99 102.022 294.455 102.245C294.92 102.468 295.273 102.785 295.515 103.195C295.761 103.605 295.884 104.091 295.884 104.651C295.884 104.961 295.834 105.269 295.733 105.574C295.633 105.88 295.49 106.185 295.303 106.49C295.12 106.791 294.904 107.094 294.653 107.399C294.403 107.7 294.127 108.006 293.826 108.315L291.673 110.688H296.267Z" fill="#2B4450"/>
</g>
<defs>
<filter id="filter0_i_113_2" x="142" y="18" width="57" height="35" filterUnits="userSpaceOnUse" color-interpolation-filters="sRGB">
<feFlood flood-opacity="0" result="BackgroundImageFix"/>
<feBlend mode="normal" in="SourceGraphic" in2="BackgroundImageFix" result="shape"/>
<feColorMatrix in="SourceAlpha" type="matrix" values="0 0 0 0 0 0 0 0 0 0 0 0 0 0 0 0 0 0 127 0" result="hardAlpha"/>
<feOffset dy="4"/>
<feGaussianBlur stdDeviation="2"/>
<feComposite in2="hardAlpha" operator="arithmetic" k2="-1" k3="1"/>
<feColorMatrix type="matrix" values="0 0 0 0 0 0 0 0 0 0 0 0 0 0 0 0 0 0 0.25 0"/>
<feBlend mode="normal" in2="shape" result="effect1_innerShadow_113_2"/>
</filter>
<filter id="filter1_i_113_2" x="30" y="18" width="81" height="35" filterUnits="userSpaceOnUse" color-interpolation-filters="sRGB">
<feFlood flood-opacity="0" result="BackgroundImageFix"/>
<feBlend mode="normal" in="SourceGraphic" in2="BackgroundImageFix" result="shape"/>
<feColorMatrix in="SourceAlpha" type="matrix" values="0 0 0 0 0 0 0 0 0 0 0 0 0 0 0 0 0 0 127 0" result="hardAlpha"/>
<feOffset dy="4"/>
<feGaussianBlur stdDeviation="2"/>
<feComposite in2="hardAlpha" operator="arithmetic" k2="-1" k3="1"/>
<feColorMatrix type="matrix" values="0 0 0 0 0 0 0 0 0 0 0 0 0 0 0 0 0 0 0.25 0"/>
<feBlend mode="normal" in2="shape" result="effect1_innerShadow_113_2"/>
</filter>
<filter id="filter2_i_113_2" x="25" y="18" width="33" height="33" filterUnits="userSpaceOnUse" color-interpolation-filters="sRGB">
<feFlood flood-opacity="0" result="BackgroundImageFix"/>
<feBlend mode="normal" in="SourceGraphic" in2="BackgroundImageFix" result="shape"/>
<feColorMatrix in="SourceAlpha" type="matrix" values="0 0 0 0 0 0 0 0 0 0 0 0 0 0 0 0 0 0 127 0" result="hardAlpha"/>
<feOffset dx="2" dy="2"/>
<feGaussianBlur stdDeviation="2"/>
<feComposite in2="hardAlpha" operator="arithmetic" k2="-1" k3="1"/>
<feColorMatrix type="matrix" values="0 0 0 0 0 0 0 0 0 0 0 0 0 0 0 0 0 0 0.25 0"/>
<feBlend mode="normal" in2="shape" result="effect1_innerShadow_113_2"/>
</filter>
<filter id="filter3_i_113_2" x="142" y="54" width="57" height="35" filterUnits="userSpaceOnUse" color-interpolation-filters="sRGB">
<feFlood flood-opacity="0" result="BackgroundImageFix"/>
<feBlend mode="normal" in="SourceGraphic" in2="BackgroundImageFix" result="shape"/>
<feColorMatrix in="SourceAlpha" type="matrix" values="0 0 0 0 0 0 0 0 0 0 0 0 0 0 0 0 0 0 127 0" result="hardAlpha"/>
<feOffset dy="4"/>
<feGaussianBlur stdDeviation="2"/>
<feComposite in2="hardAlpha" operator="arithmetic" k2="-1" k3="1"/>
<feColorMatrix type="matrix" values="0 0 0 0 0 0 0 0 0 0 0 0 0 0 0 0 0 0 0.25 0"/>
<feBlend mode="normal" in2="shape" result="effect1_innerShadow_113_2"/>
</filter>
<filter id="filter4_i_113_2" x="142" y="91" width="57" height="35" filterUnits="userSpaceOnUse" color-interpolation-filters="sRGB">
<feFlood flood-opacity="0" result="BackgroundImageFix"/>
<feBlend mode="normal" in="SourceGraphic" in2="BackgroundImageFix" result="shape"/>
<feColorMatrix in="SourceAlpha" type="matrix" values="0 0 0 0 0 0 0 0 0 0 0 0 0 0 0 0 0 0 127 0" result="hardAlpha"/>
<feOffset dy="4"/>
<feGaussianBlur stdDeviation="2"/>
<feComposite in2="hardAlpha" operator="arithmetic" k2="-1" k3="1"/>
<feColorMatrix type="matrix" values="0 0 0 0 0 0 0 0 0 0 0 0 0 0 0 0 0 0 0.25 0"/>
<feBlend mode="normal" in2="shape" result="effect1_innerShadow_113_2"/>
</filter>
<filter id="filter5_i_113_2" x="229" y="18" width="85" height="35" filterUnits="userSpaceOnUse" color-interpolation-filters="sRGB">
<feFlood flood-opacity="0" result="BackgroundImageFix"/>
<feBlend mode="normal" in="SourceGraphic" in2="BackgroundImageFix" result="shape"/>
<feColorMatrix in="SourceAlpha" type="matrix" values="0 0 0 0 0 0 0 0 0 0 0 0 0 0 0 0 0 0 127 0" result="hardAlpha"/>
<feOffset dy="4"/>
<feGaussianBlur stdDeviation="2"/>
<feComposite in2="hardAlpha" operator="arithmetic" k2="-1" k3="1"/>
<feColorMatrix type="matrix" values="0 0 0 0 0 0 0 0 0 0 0 0 0 0 0 0 0 0 0.25 0"/>
<feBlend mode="normal" in2="shape" result="effect1_innerShadow_113_2"/>
</filter>
<filter id="filter6_i_113_2" x="229" y="54" width="85" height="35" filterUnits="userSpaceOnUse" color-interpolation-filters="sRGB">
<feFlood flood-opacity="0" result="BackgroundImageFix"/>
<feBlend mode="normal" in="SourceGraphic" in2="BackgroundImageFix" result="shape"/>
<feColorMatrix in="SourceAlpha" type="matrix" values="0 0 0 0 0 0 0 0 0 0 0 0 0 0 0 0 0 0 127 0" result="hardAlpha"/>
<feOffset dy="4"/>
<feGaussianBlur stdDeviation="2"/>
<feComposite in2="hardAlpha" operator="arithmetic" k2="-1" k3="1"/>
<feColorMatrix type="matrix" values="0 0 0 0 0 0 0 0 0 0 0 0 0 0 0 0 0 0 0.25 0"/>
<feBlend mode="normal" in2="shape" result="effect1_innerShadow_113_2"/>
</filter>
<filter id="filter7_i_113_2" x="229" y="91" width="85" height="35" filterUnits="userSpaceOnUse" color-interpolation-filters="sRGB">
<feFlood flood-opacity="0" result="BackgroundImageFix"/>
<feBlend mode="normal" in="SourceGraphic" in2="BackgroundImageFix" result="shape"/>
<feColorMatrix in="SourceAlpha" type="matrix" values="0 0 0 0 0 0 0 0 0 0 0 0 0 0 0 0 0 0 127 0" result="hardAlpha"/>
<feOffset dy="4"/>
<feGaussianBlur stdDeviation="2"/>
<feComposite in2="hardAlpha" operator="arithmetic" k2="-1" k3="1"/>
<feColorMatrix type="matrix" values="0 0 0 0 0 0 0 0 0 0 0 0 0 0 0 0 0 0 0.25 0"/>
<feBlend mode="normal" in2="shape" result="effect1_innerShadow_113_2"/>
</filter>
<filter id="filter8_i_113_2" x="30" y="54" width="81" height="35" filterUnits="userSpaceOnUse" color-interpolation-filters="sRGB">
<feFlood flood-opacity="0" result="BackgroundImageFix"/>
<feBlend mode="normal" in="SourceGraphic" in2="BackgroundImageFix" result="shape"/>
<feColorMatrix in="SourceAlpha" type="matrix" values="0 0 0 0 0 0 0 0 0 0 0 0 0 0 0 0 0 0 127 0" result="hardAlpha"/>
<feOffset dy="4"/>
<feGaussianBlur stdDeviation="2"/>
<feComposite in2="hardAlpha" operator="arithmetic" k2="-1" k3="1"/>
<feColorMatrix type="matrix" values="0 0 0 0 0 0 0 0 0 0 0 0 0 0 0 0 0 0 0.25 0"/>
<feBlend mode="normal" in2="shape" result="effect1_innerShadow_113_2"/>
</filter>
<filter id="filter9_i_113_2" x="25" y="54" width="33" height="33" filterUnits="userSpaceOnUse" color-interpolation-filters="sRGB">
<feFlood flood-opacity="0" result="BackgroundImageFix"/>
<feBlend mode="normal" in="SourceGraphic" in2="BackgroundImageFix" result="shape"/>
<feColorMatrix in="SourceAlpha" type="matrix" values="0 0 0 0 0 0 0 0 0 0 0 0 0 0 0 0 0 0 127 0" result="hardAlpha"/>
<feOffset dx="2" dy="2"/>
<feGaussianBlur stdDeviation="2"/>
<feComposite in2="hardAlpha" operator="arithmetic" k2="-1" k3="1"/>
<feColorMatrix type="matrix" values="0 0 0 0 0 0 0 0 0 0 0 0 0 0 0 0 0 0 0.25 0"/>
<feBlend mode="normal" in2="shape" result="effect1_innerShadow_113_2"/>
</filter>
<filter id="filter10_i_113_2" x="31" y="91" width="81" height="35" filterUnits="userSpaceOnUse" color-interpolation-filters="sRGB">
<feFlood flood-opacity="0" result="BackgroundImageFix"/>
<feBlend mode="normal" in="SourceGraphic" in2="BackgroundImageFix" result="shape"/>
<feColorMatrix in="SourceAlpha" type="matrix" values="0 0 0 0 0 0 0 0 0 0 0 0 0 0 0 0 0 0 127 0" result="hardAlpha"/>
<feOffset dy="4"/>
<feGaussianBlur stdDeviation="2"/>
<feComposite in2="hardAlpha" operator="arithmetic" k2="-1" k3="1"/>
<feColorMatrix type="matrix" values="0 0 0 0 0 0 0 0 0 0 0 0 0 0 0 0 0 0 0.25 0"/>
<feBlend mode="normal" in2="shape" result="effect1_innerShadow_113_2"/>
</filter>
<filter id="filter11_i_113_2" x="27" y="91" width="33" height="33" filterUnits="userSpaceOnUse" color-interpolation-filters="sRGB">
<feFlood flood-opacity="0" result="BackgroundImageFix"/>
<feBlend mode="normal" in="SourceGraphic" in2="BackgroundImageFix" result="shape"/>
<feColorMatrix in="SourceAlpha" type="matrix" values="0 0 0 0 0 0 0 0 0 0 0 0 0 0 0 0 0 0 127 0" result="hardAlpha"/>
<feOffset dx="2" dy="2"/>
<feGaussianBlur stdDeviation="2"/>
<feComposite in2="hardAlpha" operator="arithmetic" k2="-1" k3="1"/>
<feColorMatrix type="matrix" values="0 0 0 0 0 0 0 0 0 0 0 0 0 0 0 0 0 0 0.25 0"/>
<feBlend mode="normal" in2="shape" result="effect1_innerShadow_113_2"/>
</filter>
<clipPath id="clip0_113_2">
<rect width="340" height="140" fill="white"/>
</clipPath>
</defs>
</svg>
