<svg width="134" height="34" viewBox="0 0 134 34" fill="none" xmlns="http://www.w3.org/2000/svg">
<rect x="1" y="1" width="132" height="32" rx="16" fill="#5E76BF" stroke="#A2B6F2" stroke-width="2" stroke-dasharray="2 2"/>
<circle cx="20" cy="17" r="9" fill="#5E76BF" stroke="#A2B6F2" stroke-width="2" stroke-dasharray="2 2"/>
<path d="M66.0639 14.332L65.6596 15.7207H57.5033L57.9076 14.332H66.0639ZM62.4076 24L57.7582 18.5684L57.7494 17.4785H59.8939C60.515 17.4785 61.0277 17.376 61.432 17.1709C61.8422 16.96 62.1498 16.6758 62.3549 16.3184C62.56 15.9609 62.6625 15.5596 62.6625 15.1143C62.6625 14.6162 62.5658 14.1797 62.3725 13.8047C62.1791 13.4238 61.8744 13.1279 61.4584 12.917C61.0482 12.7002 60.5092 12.5918 59.8412 12.5918H57.5209L57.934 11.2031H59.8412C60.8607 11.2031 61.7016 11.3584 62.3637 11.6689C63.0316 11.9736 63.5297 12.4189 63.8578 13.0049C64.1859 13.5908 64.35 14.2998 64.35 15.1318C64.35 15.8467 64.2123 16.4883 63.9369 17.0566C63.6674 17.6191 63.2191 18.0615 62.5922 18.3838C61.9711 18.7061 61.1332 18.8672 60.0785 18.8672L64.4027 23.8945V24H62.4076ZM66.0639 11.2031L65.6596 12.5918H59.0854L59.4896 11.2031H66.0639ZM76.2803 14.332L75.876 15.7207H67.7197L68.124 14.332H76.2803ZM72.624 24L67.9746 18.5684L67.9658 17.4785H70.1104C70.7314 17.4785 71.2441 17.376 71.6484 17.1709C72.0586 16.96 72.3662 16.6758 72.5713 16.3184C72.7764 15.9609 72.8789 15.5596 72.8789 15.1143C72.8789 14.6162 72.7822 14.1797 72.5889 13.8047C72.3955 13.4238 72.0908 13.1279 71.6748 12.917C71.2646 12.7002 70.7256 12.5918 70.0576 12.5918H67.7373L68.1504 11.2031H70.0576C71.0771 11.2031 71.918 11.3584 72.5801 11.6689C73.248 11.9736 73.7461 12.4189 74.0742 13.0049C74.4023 13.5908 74.5664 14.2998 74.5664 15.1318C74.5664 15.8467 74.4287 16.4883 74.1533 17.0566C73.8838 17.6191 73.4355 18.0615 72.8086 18.3838C72.1875 18.7061 71.3496 18.8672 70.2949 18.8672L74.6191 23.8945V24H72.624ZM76.2803 11.2031L75.876 12.5918H69.3018L69.7061 11.2031H76.2803ZM86.4967 14.332L86.0924 15.7207H77.9361L78.3404 14.332H86.4967ZM82.8404 24L78.191 18.5684L78.1822 17.4785H80.3268C80.9479 17.4785 81.4605 17.376 81.8648 17.1709C82.275 16.96 82.5826 16.6758 82.7877 16.3184C82.9928 15.9609 83.0953 15.5596 83.0953 15.1143C83.0953 14.6162 82.9986 14.1797 82.8053 13.8047C82.6119 13.4238 82.3072 13.1279 81.8912 12.917C81.4811 12.7002 80.942 12.5918 80.274 12.5918H77.9537L78.3668 11.2031H80.274C81.2936 11.2031 82.1344 11.3584 82.7965 11.6689C83.4645 11.9736 83.9625 12.4189 84.2906 13.0049C84.6187 13.5908 84.7828 14.2998 84.7828 15.1318C84.7828 15.8467 84.6451 16.4883 84.3697 17.0566C84.1002 17.6191 83.652 18.0615 83.025 18.3838C82.4039 18.7061 81.566 18.8672 80.5113 18.8672L84.8355 23.8945V24H82.8404ZM86.4967 11.2031L86.0924 12.5918H79.5182L79.9225 11.2031H86.4967Z" fill="#A2B6F2"/>
</svg>
